<svg xmlns="http://www.w3.org/2000/svg" width="24" height="24" fill="none">
    <path fill="#fff"
        d="M10.46 20.6c-2.61-.16-5.02-2.01-5.02-4.96 0-1.23.38-2.55 1.14-3.98.46-.8 1.08-1.83 1.41-3.14.24-.95.39-1.87.44-2.68.11-1.59.95-2.86 2.03-3.1v-.07c.38-.15.8-.23 1.2-.23 1.88 0 3.36 1.23 3.53 2.99.1.8.8 2.65 1.16 3.6.5 1.3.92 2.01 1.63 2.82a6.45 6.45 0 0 1 1.27 3.59c0 3.09-2.22 5.58-8.8 5.23v-.07Z" />
    <path fill="#72BD87"
        d="M10.46 20.4c.5.14.5.1 1.04.1 2.74 0 4.5-1.41 4.5-4.5 0-1.1.3-1.67-.5-3-.47-.8-1.67-2.2-2-3.5A27.5 27.5 0 0 1 13 6c-.12-1.76-.26-3-1.5-3-.6 0-.62-.47-1.04.07v-.4c.38-.15.8-.23 1.2-.23 1.88 0 3.36 1.23 3.53 2.99.1.8.8 2.65 1.16 3.6.5 1.3.92 2.01 1.63 2.82a6.45 6.45 0 0 1 1.27 3.59c0 3.09-2.22 5.58-8.8 5.23v-.27Z" />
    <path fill="#D2F2CD"
        d="M11.54 20.57C9.08 20.27 6 19.8 6 17c-.5-1-.76-3.07 0-4.5.47-.8 1.17-1.2 1.5-2.5.24-.95.95-3.35 1-4.16.05-.7.32-1.83.95-2.34.63-.51 1.63-.4 2.07-.62.77.42 1.15 1.57 1.24 2.96.07.9.22 1.8.44 2.68.33 1.3 1.03 2.67 1.5 3.48a7.25 7.25 0 0 1 1.18 3.63 4.79 4.79 0 0 1-4.34 4.94Z" />
    <path fill="#000"
        d="m11.65 21.08-1.22-.03.05-.88c1.77.1 3.3-.02 4.52-.33a5.78 5.78 0 0 0 2.6-1.31c.8-.77 1.21-1.81 1.21-3.1 0-1.03-.4-2.15-1.18-3.31a8.64 8.64 0 0 1-1.7-2.93 21 21 0 0 1-1.17-3.71v-.01c-.16-1.53-1.43-2.6-3.1-2.6-.37 0-.75.14-1.04.25l-.33-.81c.36-.15.85-.31 1.38-.31 1.01 0 1.96.33 2.68.94a3.65 3.65 0 0 1 1.28 2.44c.1.77.82 2.68 1.13 3.5.46 1.2.85 1.88 1.55 2.67l.02.03.01.02a6.9 6.9 0 0 1 1.35 3.84c0 1.53-.5 2.78-1.49 3.72-1.34 1.28-3.54 1.92-6.55 1.92Z" />
    <path fill="#000"
        d="M10.82 21.05a6.38 6.38 0 0 1-4-1.44A5.15 5.15 0 0 1 5 15.63c0-1.29.4-2.7 1.19-4.18v-.02l.08-.12a10.94 10.94 0 0 0 1.72-5.5c.15-2.02 1.36-3.55 2.83-3.55.75 0 1.36.4 1.78 1.13.33.6.54 1.41.6 2.41.07.88.21 1.76.42 2.61a14.38 14.38 0 0 0 1.45 3.36 7.7 7.7 0 0 1 1.25 3.86c0 .81-.15 1.57-.44 2.26a5 5 0 0 1-1.2 1.71 5.63 5.63 0 0 1-3.86 1.45Zm-3.86-9.18a8.2 8.2 0 0 0-1.08 3.76c0 1.67.82 2.73 1.5 3.32.92.77 2.17 1.22 3.44 1.22 1.26 0 2.42-.43 3.26-1.21a4.4 4.4 0 0 0 1.36-3.33c0-1-.38-2.15-1.13-3.4v-.01a14.98 14.98 0 0 1-1.54-3.6c-.23-.9-.37-1.82-.45-2.75a4.99 4.99 0 0 0-.49-2.04c-.38-.69-.86-.69-1.01-.69-.98 0-1.84 1.2-1.95 2.73-.06.86-.21 1.81-.45 2.76-.33 1.3-.92 2.3-1.39 3.12l-.07.12Z" />
    <path fill="#fff" d="M7.8 15.29a2.66 2.66 0 1 0 5.31 0 2.66 2.66 0 0 0-5.32 0Z" />
    <path fill="#FBDB7B"
        d="M11 12.72c.62.4 1.54.24 1.8.88a3 3 0 0 1 .06 2 3.3 3.3 0 0 1-1.23 1.68 3.9 3.9 0 0 1-2.08.72 3.37 3.37 0 0 1-1.34-1.6 3 3 0 0 1-.07-2 3.3 3.3 0 0 1 1.23-1.68c.6-.43.87.04 1.63 0Z" />
    <path fill="#000"
        d="M10.46 18.39a3.1 3.1 0 1 1 0-6.21 3.1 3.1 0 0 1 0 6.2Zm0-5.32a2.22 2.22 0 1 0 0 4.44 2.22 2.22 0 0 0 0-4.44Z" />
</svg>