<svg xmlns="http://www.w3.org/2000/svg" width="24" height="24" fill="none">
    <path stroke="#fff" stroke-width=".4"
        d="M9.35 18.62H2.97c-.85 0-1.18.4-1.18.86v2.56h21.03v-2.56c0-.53-.4-.86-1.31-.86h-7.56m-3.22 0h1.64" />
    <path stroke="#fff" stroke-width=".4"
        d="M21.24 18.62v-.79c0-.52-.26-.79-.92-.79H4.1c-.66 0-.86.27-.86.66v.92M14.15 6.68c.18 0 .27.03.31.06.03.03.06.07.06.18v1.42c-.03.08-.04.1-.06.1a.74.74 0 0 1-.31.04h-3.88c-.11 0-.14-.03-.15-.04a.49.49 0 0 1-.03-.2V6.92c0-.1.02-.15.06-.18.04-.03.13-.06.31-.06h3.69ZM11.06 9.48v-.92m2.43 0v.92M19.8 16.98a7.56 7.56 0 0 0-15.12 0" />
    <path stroke="#fff" stroke-width=".4"
        d="M6.78 14.02c.21-.43.38-.67.86-1.12m.72-.59c.8-.58 1.28-.85 2.24-1.12" />
</svg>