<svg xmlns="http://www.w3.org/2000/svg" width="48" height="48" fill="none">
    <g clip-path="url(#a)">
        <path stroke="#000" stroke-width=".8"
            d="M18.7 37.25H5.93c-1.7 0-2.37.78-2.37 1.7v5.13h42.08v-5.12c0-1.06-.8-1.71-2.63-1.71H27.9m-6.45 0h3.3" />
        <path stroke="#000" stroke-width=".8"
            d="M42.49 37.25v-1.58c0-1.05-.53-1.58-1.84-1.58H8.17c-1.31 0-1.7.53-1.7 1.31v1.85" />
        <path stroke="#000" stroke-width=".8"
            d="M42.49 37.25v-1.58c0-1.05-.53-1.58-1.84-1.58H8.17c-1.31 0-1.7.53-1.7 1.31v1.85M28.29 13.45c.37 0 .52.07.57.11.03.03.08.08.08.28v2.83c-.04.11-.06.12-.07.13-.05.02-.18.06-.58.06h-7.76a.53.53 0 0 1-.18-.02c-.02 0-.02-.01-.02-.02 0 0-.02-.02-.03-.09a1.33 1.33 0 0 1-.02-.26v-2.63c0-.2.04-.25.08-.28.05-.04.2-.1.57-.1h7.36ZM22.11 18.97v-1.84m4.87 0v1.84M39.6 33.96a15.12 15.12 0 0 0-30.24 0" />
        <path stroke="#000" stroke-width=".8"
            d="M13.57 28.04a6.5 6.5 0 0 1 1.7-2.23m1.45-1.19c1.6-1.16 2.55-1.7 4.47-2.23" />
        <path fill="#000"
            d="m38.96 4-3.03 7.12 4.83-6.24-1.8-.88ZM9.9 4.36l2.73 6.4-4.35-5.6 1.62-.8ZM1.06 14.82 7 17.22l-6.5-.83.55-1.57ZM48 15.35 41.72 18l5.5-4.22.78 1.57Z" />
    </g>
    <defs>
        <clipPath id="a">
            <path fill="#fff" d="M0 0h48v48H0z" />
        </clipPath>
    </defs>
</svg>