<svg xmlns="http://www.w3.org/2000/svg" width="48" height="48" fill="none">
    <g stroke="#000" stroke-width=".8" clip-path="url(#a)">
        <path stroke-linecap="round"
            d="M32.94 39.33H4a3 3 0 0 1-3-3V18.24m36.15 21.1H45a3 3 0 0 0 3-3V11a3 3 0 0 0-3-3H4a3 3 0 0 0-3 3v3.63" />
        <path stroke-linecap="round"
            d="M44.99 34.11V12.48a1 1 0 0 0-1-1h-3.22m4.22 22.63H4m40.98 0H48 4.01m0 0V12.48a1 1 0 0 1 1-1h31.54M4.01 34.11H1" />
        <path
            d="M12.46 20.13h-.37a3.06 3.06 0 0 1-1.57-.94c-.84-.86-1.14-1.93-.68-2.38.47-.45 1.52-.11 2.36.75.52.54.83 1.15.88 1.64v.34M21.9 26.96c.21.95.25 1.8.1 2.5-1.6.15-3.7-.37-5.61-1.33-2.03-1.02-3.75-2.48-4.43-4-.7-1.55-.2-3.06.86-4.06a4.07 4.07 0 0 1 4.15-.94c.56.27 1.22.85 1.9 1.66a15.72 15.72 0 0 1 3.04 6.17Z" />
        <path d="M11.25 16.86c-.1-.71.17-1.21.6-1.4.62-.28 1.52.4 2 1.5.3.65.38 1.32.26 1.8l-.12.42" />
        <path stroke-linecap="round"
            d="M15.22 22.57 18 19.79m.22 6.02 2.4-2.4m-5.39 1.75L14 26.42m5.2 1.5-.98.9" />
        <path
            d="M10.04 18.63h-.12c-.72-.09-1.32.1-1.5.54-.25.6.42 1.46 1.5 1.9.54.23 1.09.3 1.52.25h.15M39.22 20.18a5.34 5.34 0 0 1-8.46 5.98m0 0 2.29-1.07m-2.29 1.07.15 2.14m-1.5-3.86a5.36 5.36 0 0 1 8.15-6.56m0 0-.24-2.4m.24 2.4-2.38.8" />
    </g>
    <defs>
        <clipPath id="a">
            <path fill="#fff" d="M0 0h48v48H0z" />
        </clipPath>
    </defs>
</svg>