<svg xmlns="http://www.w3.org/2000/svg" width="24" height="24" fill="none">
    <path stroke="#fff" stroke-linecap="round" stroke-width=".4"
        d="M15.95 18.67H4a3 3 0 0 1-3-3V8.79m16.92 9.88H20a3 3 0 0 0 3-3V7a3 3 0 0 0-3-3H4a3 3 0 0 0-3 3v.1" />
    <path stroke="#fff" stroke-linecap="round" stroke-width=".4"
        d="M21.59 16.22v-9.6a1 1 0 0 0-1-1h-.97m1.97 10.6H2.41m19.18 0H23 2.41m0 0v-9.6a1 1 0 0 1 1-1h14.23M2.41 16.23H1" />
    <path stroke="#fff" stroke-width=".4"
        d="M6.36 9.68H6.2c-.23-.04-.5-.2-.74-.44-.39-.4-.53-.9-.31-1.12.22-.2.71-.05 1.1.36.24.25.4.53.42.76v.16M10.77 12.88c.1.44.12.83.04 1.15a5.18 5.18 0 0 1-2.6-.62 4.44 4.44 0 0 1-2.07-1.87c-.32-.71-.1-1.41.4-1.88a1.9 1.9 0 0 1 1.93-.44c.26.13.57.4.88.78a7.34 7.34 0 0 1 1.42 2.88Z" />
    <path stroke="#fff" stroke-width=".4"
        d="M5.8 8.15c-.05-.34.08-.57.28-.66.29-.13.7.19.94.7.13.31.17.62.12.85l-.06.2" />
    <path stroke="#fff" stroke-linecap="round" stroke-width=".4"
        d="m7.66 10.82 1.3-1.3m.1 2.82 1.12-1.13m-2.52.82-.58.59m2.44.7-.47.43" />
    <path stroke="#fff" stroke-width=".4"
        d="M5.23 8.97h-.06c-.33-.04-.61.05-.7.26-.12.28.2.68.7.89.26.1.51.14.72.12h.07M18.9 9.7a2.5 2.5 0 0 1-3.97 2.8m0 0L16 12m-1.07.5.07 1m-.7-1.8a2.5 2.5 0 0 1 3.82-3.07m0 0L18 7.5m.11 1.13L17 9" />
</svg>