<svg xmlns="http://www.w3.org/2000/svg" width="24" height="24" fill="none">
    <path fill="#D7514A" d="M3.38 15.64h17.18v1.72H3.38v-1.72Zm0-3.44h17.18v1.38H3.38V12.2Z" />
    <path fill="#FBDB7B"
        d="m10.25 12.2-1.37 1.38-.7.69-.68-.7-1.37-1.37h4.12Zm-6.87-1.37h17.18v1.37H3.38v-1.37Z" />
    <path fill="#C99B75"
        d="M21.94 14.27v.68c0 .38-.31.7-.69.7H2.69a.69.69 0 0 1-.69-.7v-.68c0-.38.3-.7.69-.7H7.5l.69.7.69-.7h12.37c.38 0 .69.32.69.7Z" />
    <path fill="#FDD6B5"
        d="M21.25 19.77v.68c0 .76-.62 1.38-1.38 1.38H4.07c-.76 0-1.38-.62-1.38-1.38v-.68c0-.38.3-.7.69-.7h17.18c.38 0 .69.32.69.7Zm-9.28-17.2c9.97 0 9.28 7.57 9.28 7.57 0 .41-.27.69-.69.69H3.37c-.4 0-.68-.28-.68-.69 0 0-.69-7.56 9.28-7.56Z" />
    <path fill="#72BD87" d="M20.56 17.36H3.38v1.72h17.18v-1.72Z" />
    <path fill="#000"
        d="M19.9 22H4.32c-.84 0-1.52-.7-1.52-1.58v-.7c0-.5.37-.88.84-.88h16.95c.48 0 .85.39.85.88v.7c0 .88-.68 1.58-1.52 1.58ZM3.64 19.2c-.27 0-.5.24-.5.52v.7c0 .67.54 1.23 1.18 1.23h15.6c.64 0 1.18-.56 1.18-1.23v-.7a.53.53 0 0 0-.5-.53H3.62Zm15.94-1.41c-.41 0-.61-.21-.82-.39-.17-.17-.3-.31-.54-.31-.24 0-.4.14-.54.31-.17.18-.37.39-.81.39-.45 0-.61-.21-.82-.39-.17-.17-.3-.31-.54-.31-.24 0-.4.14-.54.31-.17.18-.38.39-.82.39-.44 0-.6-.21-.81-.39-.17-.17-.3-.31-.54-.31-.24 0-.4.14-.54.31-.17.18-.38.39-.82.39-.44 0-.6-.21-.81-.39-.17-.17-.3-.31-.54-.31-.24 0-.41.14-.55.31-.17.18-.37.39-.81.39-.44 0-.61-.21-.81-.39-.17-.17-.3-.31-.55-.31-.23 0-.4.14-.54.31-.17.18-.37.39-.81.39-.44 0-.61-.21-.82-.39-.17-.17-.3-.31-.54-.31-.6 0-1.22.63-1.22.66a.16.16 0 0 1-.24 0 .17.17 0 0 1 0-.24c.04-.04.75-.74 1.5-.74.4 0 .6.21.81.39.17.17.3.31.54.31.24 0 .4-.14.54-.31.17-.18.38-.39.82-.39.44 0 .6.21.81.39.17.17.3.31.54.31.24 0 .41-.14.55-.31.17-.18.37-.39.81-.39.44 0 .61.21.81.39.17.17.3.31.55.31.23 0 .4-.14.54-.31.17-.18.37-.39.81-.39.44 0 .61.21.81.39.17.17.31.31.55.31.23 0 .4-.14.54-.31.17-.18.37-.39.81-.39.44 0 .61.21.82.39.17.17.3.31.54.31.24 0 .4-.14.54-.31.17-.18.37-.39.82-.39.44 0 .6.21.8.39.18.17.31.31.55.31.61 0 1.22-.63 1.22-.66a.16.16 0 0 1 .24 0c.07.07.07.17 0 .24-.04 0-.75.74-1.5.74Zm1.7-2.1H2.95a.85.85 0 0 1-.85-.88v-.7c0-.5.37-.88.85-.88H6c.1 0 .17.07.17.17s-.07.18-.17.18H2.96c-.27 0-.51.24-.51.53v.7c0 .28.24.52.5.52h18.31c.27 0 .51-.24.51-.52v-.7a.53.53 0 0 0-.5-.53H10.74c-.1 0-.17-.07-.17-.18 0-.1.07-.17.17-.17h10.51c.48 0 .85.38.85.88v.7c0 .49-.37.87-.85.87Zm-12.89-1.4c-.03 0-.1 0-.13-.04l-2-2.07H3.6c-.1 0-.17-.07-.17-.18 0-.1.07-.18.17-.18h2.71c.04 0 .1.04.14.04l1.9 1.96 1.9-1.96c.03-.04.06-.04.13-.04h10.17c.1 0 .17.07.17.18 0 .1-.07.18-.17.18h-10.1l-2 2.07c.03.03-.04.03-.07.03Zm12.2-3.52H3.63c-.5 0-.84-.35-.84-.88 0-.1-.24-2.9 1.76-5.15C6.15 2.9 8.69 2 12.11 2s5.97.91 7.56 2.74a7.31 7.31 0 0 1 1.76 5.15c0 .53-.34.88-.85.88Zm-8.47-8.42c-3.32 0-5.76.88-7.32 2.63A6.93 6.93 0 0 0 3.13 9.9c0 .36.2.53.5.53h16.95c.3 0 .51-.21.51-.53 0-.03.2-2.77-1.7-4.9-1.52-1.76-3.96-2.64-7.28-2.64Zm1.52 3.51c-.2 0-.33-.14-.33-.35 0-.21.13-.35.33-.35s.34.14.34.35c0 .2-.13.35-.34.35Zm4.07-.35c-.2 0-.34-.14-.34-.35 0-.21.14-.35.34-.35s.34.14.34.35c0 .2-.13.35-.34.35Zm-2.37-.35c-.2 0-.34-.14-.34-.35 0-.21.14-.35.34-.35s.34.14.34.35c0 .2-.14.35-.34.35Zm-3.73-.7c-.2 0-.34-.14-.34-.35 0-.22.14-.36.34-.36s.34.14.34.36c0 .2-.14.35-.34.35Zm2.37-.7c-.2 0-.34-.15-.34-.36 0-.2.14-.35.34-.35s.34.14.34.35c0 .21-.13.35-.34.35Z" />
</svg>