<svg xmlns="http://www.w3.org/2000/svg" width="24" height="24" fill="none">
    <path fill="#36809D"
        d="M19.58 19.25c-4.24.63-11.32-2.75-13.13-6.78-1.9-4.23 2.77-8.26 6.77-6.77 3.18 1.48 7.63 9.53 6.36 13.55Z" />
    <ellipse cx="6.72" cy="5.98" fill="#D2F2CD" rx="1.75" ry="3.55"
        transform="rotate(-40 6.72 5.98)" />
    <ellipse cx="7.82" cy="4.88" fill="#D2F2CD" rx="1.75" ry="3.55"
        transform="rotate(-15 7.82 4.88)" />
    <ellipse cx="5.96" cy="7.54" fill="#D2F2CD" rx="1.74" ry="3.59"
        transform="rotate(-70 5.96 7.54)" />
    <path stroke="#1A1A1A" stroke-width=".4"
        d="M7.5 7.37h-.44c-.6-.1-1.31-.5-1.93-1.15C4.1 5.16 3.73 3.85 4.3 3.3c.57-.55 1.87-.13 2.9.93a3.7 3.7 0 0 1 1.08 2v.43" />
    <path stroke="#1A1A1A" stroke-width=".4"
        d="M7.5 7.37h-.44c-.6-.1-1.31-.5-1.93-1.15C4.1 5.16 3.73 3.85 4.3 3.3c.57-.55 1.87-.14 2.9.93a3.7 3.7 0 0 1 1.08 2v.42" />
    <path fill="#FCD497" stroke="#1A1A1A" stroke-width=".4"
        d="M19.37 15.69c.27 1.27.32 2.44.05 3.38-2.05.27-4.77-.4-7.23-1.64-2.5-1.26-4.68-3.09-5.56-5.04-.91-2.02-.25-4 1.13-5.3a5.28 5.28 0 0 1 5.39-1.2c.75.35 1.6 1.1 2.43 2.11a19.54 19.54 0 0 1 3.8 7.69Z" />
    <path stroke="#1A1A1A" stroke-width=".4"
        d="M6.02 3.37c-.1-.88.22-1.49.74-1.72.76-.34 1.86.48 2.46 1.83.36.81.46 1.62.31 2.22l-.15.5" />
    <path stroke="#1A1A1A" stroke-linecap="round" stroke-width=".4"
        d="m10.9 10.36 3.38-3.4m.27 7.38 2.96-2.95m-6.62 2.15-1.5 1.54m6.37 1.85-1.2 1.1" />
    <path stroke="#1A1A1A" stroke-width=".4"
        d="M4.54 5.53H4.4c-.88-.1-1.61.13-1.83.66-.31.75.51 1.8 1.83 2.34a3.8 3.8 0 0 0 1.88.3h.18" />
</svg>