<svg xmlns="http://www.w3.org/2000/svg" width="24" height="24" fill="none">
    <path fill="#D7514A" stroke="#000" stroke-width=".3"
        d="M17.45 3.52H5.73v-.87c0-.28.22-.5.5-.5h10.72c.27 0 .5.22.5.5v.87Z" />
    <path fill="#E56353" stroke="#000" stroke-width=".3"
        d="m18.7 3.5.32 1.2c.03.11-.05.21-.16.21H4.32c-.11 0-.2-.1-.16-.2l.33-1.2a.17.17 0 0 1 .15-.13h13.9c.07 0 .13.05.15.13Z" />
    <path fill="#FCD497" stroke="#000" stroke-width=".4"
        d="m7.25 22.1-.54-4.08h9.76l-.54 4.07c-.05.4-.4.71-.8.71H8.04c-.4 0-.75-.3-.8-.7ZM5.66 10.04l-.63-4.78h13.12l-.63 4.78H5.66Z" />
    <path fill="#CE8E5E" stroke="#000" stroke-width=".4"
        d="m6.68 18.3-1.05-8.1h11.91l-1.04 8.1H6.68Z" />
    <path fill="#AD6636" stroke="#000" stroke-width=".3"
        d="M12.27 13.6a2.17 2.17 0 0 1 1.66-.88c.29.83 0 1.95-.85 2.8-.84.84-1.94 1.13-2.76.87.14-.11.24-.22.3-.28.44-.47.82-1 1.12-1.57l.15-.28c.13-.25.24-.47.38-.66ZM9.98 15.5c-.19.2-.34.31-.45.35-.67-.82-.48-2.26.57-3.3 1.02-1.03 2.4-1.24 3.24-.63-.7.16-1.35.57-1.78 1.16-.19.25-.32.52-.45.77v.02l-.14.26c-.27.5-.6.96-.99 1.38Zm-.5.52c.17-.03.37-.16.61-.41l-.62.41Z" />
    <path fill="#995B30"
        d="M10.51 16c.43-.46.8-.97 1.1-1.53l.15-.28c.12-.25.24-.48.39-.68.43-.6 1.16-.95 1.89-.94-.09-.2-.2-.4-.36-.56-.79.1-1.53.52-2 1.16-.18.24-.31.5-.44.76l-.14.27c-.27.51-.61.99-1.01 1.4-.24.26-.44.4-.62.42a1.76 1.76 0 0 0 .54.4c.24-.14.42-.33.5-.42Z" />
</svg>