<svg xmlns="http://www.w3.org/2000/svg" width="24" height="24" fill="none">
    <path fill="#ee6c4d" fill-rule="evenodd"
        d="M9 3.45c-.14.79-.69.67-2.55.75-2.1.1-2.55.3-2.45 1.3.17.44 1.05.5 8 .5 6.97 0 7.85-.06 8.01-.5 0-1-.35-1.2-2.46-1.3-1.57-.07-2.26-.05-2.4-.45-.3-1.5-.76-1.95-3.11-1.95-1.42 0-2.74 0-3.04 1.65ZM5.27 8.28c-.36.35-.45.82-.33 1.73.09.68.3 2.97.48 5.08.37 4.46.51 4.94 1.77 6 1.18.98 2.3 1.2 5.68 1.06 2.16-.08 2.86-.23 3.54-.74 1.5-1.12 1.84-2.08 2.18-6.26.17-2.15.39-4.46.48-5.14.29-2.17.13-2.21-7.06-2.21-5.36 0-6.33.07-6.74.48Z"
        clip-rule="evenodd" />
</svg>