<svg xmlns="http://www.w3.org/2000/svg" width="24" height="24" fill="none">
    <g clip-path="url(#a)">
        <circle cx="12.5" cy="12.5" r="11.5" fill="#000" />
        <circle cx="11.5" cy="11.5" r="11.3" fill="#BFE34B" stroke="#000" stroke-width=".4" />
        <path fill="#fff" stroke="#000" stroke-width=".2"
            d="M12.96 16.02h-1.24v.2h1.24v-.2Zm3.43 0h-2.38v.2h2.38v-.2Zm-9.22.2 3.44-.01v-.2l-3.44.01v.2Zm-3.23-3.17h15.67v1.17c0 .1-.04.25-.1.45-.08.19-.18.4-.3.61a2 2 0 0 1-.4.53c-.14.14-.28.21-.4.21l-1.88-.01h-.1v1.72c0 .15-.02.24-.07.3-.04.06-.12.1-.28.1H7.5c-.15 0-.24-.04-.3-.1a.73.73 0 0 1-.09-.4v-1.6H5.04c-.14 0-.27-.08-.41-.23a2.24 2.24 0 0 1-.36-.57 4.17 4.17 0 0 1-.33-1.17v-1.01Zm6.82-2.02c-.21-.67.06-1.26.54-1.63a1.67 1.67 0 0 1 1.74-.19c.18.12.39.33.58.6.2.28.39.62.55.99.31.7.52 1.49.51 2.14l-2.19-.02a3.95 3.95 0 0 1-1.73-1.9Z" />
        <path stroke="#000" stroke-linecap="round" stroke-width=".2"
            d="m12.17 10.54 1.21-.97m-.18 2.38 1.06-.84m-2.2.45-.55.44" />
        <path fill="#fff" stroke="#000" stroke-width=".2"
            d="M10.96 8.06c.01-.22.11-.34.23-.37.08-.03.18 0 .3.11s.23.29.3.5c.08.26.07.5.02.66l-.05.1-.18.06c0-.23-.11-.5-.3-.75-.1-.12-.2-.23-.32-.31Zm.42 1.06-.01.08-.2.15h-.1a1.13 1.13 0 0 1-.52-.4l-.14-.23a.93.93 0 0 1-.12-.39c0-.11.03-.18.08-.22.04-.03.1-.04.17-.03a.7.7 0 0 1 .26.11c.11.08.22.18.32.3.17.23.26.46.26.63Zm-1-.06c.18.23.4.4.6.47l-.22.25h-.02c-.16 0-.35-.04-.54-.15-.2-.1-.34-.24-.42-.37-.08-.14-.09-.24-.05-.31.02-.04.08-.08.2-.1.09-.02.2-.02.32 0 .04.08.09.15.14.21Z" />
        <path fill="#fff" d="M7 4.28c-1.18 3.35-.53 4.81 1.39 7.17-3.8 1.34-5.2-7.1-1.4-7.17Z" />
        <path stroke="#000" stroke-width=".2"
            d="m7.4 3.85-.4.43m0 0c-1.18 3.35-.53 4.81 1.39 7.17-3.8 1.34-5.2-7.1-1.4-7.17ZM5.75 6.42a5.78 5.78 0 0 0 .48 3.38" />
        <path fill="#fff"
            d="m16.65 12-1.13-.36V8.72c-.75-.03-.75-1.49.38-1.1 0-.75.75-.75 1.13-.36.37-.38 1.5-.02 1.12.73 1.13-.36 1.13 1.46 0 1.46L16.65 12Z" />
        <path stroke="#000" stroke-width=".2"
            d="m16.84 9.57-.56 1.34m-.76.73 1.13.36 1.5-2.55c1.13 0 1.13-1.82 0-1.46.38-.75-.75-1.11-1.12-.73-.38-.4-1.13-.4-1.13.37-1.13-.4-1.13 1.06-.38 1.09v2.92Z" />
        <circle cx="12.94" cy="5.32" r=".53" fill="#fff" stroke="#000" stroke-width=".2" />
        <circle cx="8.71" cy="7.01" r=".53" fill="#fff" stroke="#000" stroke-width=".2" />
        <circle cx="19.71" cy="11.24" r=".53" fill="#FDFDFD" stroke="#000" stroke-width=".2" />
        <circle cx="4.47" cy="11.24" r=".53" fill="#FFFDFD" stroke="#000" stroke-width=".2" />
        <circle cx="19.5" cy="4.5" r="4.5" fill="#1A1A1A" />
        <path fill="#FFFEFE"
            d="M17 7V5.93l3.01-3.02 1.08 1L18.07 7H17Zm4.42-3.36-1.07-1.07.47-.47c.13-.13.27-.13.4 0l.67.67c.13.14.13.27.07.34l-.54.53Z" />
    </g>
    <defs>
        <clipPath id="a">
            <path fill="#fff" d="M0 0h24v24H0z" />
        </clipPath>
    </defs>
</svg>