<svg xmlns="http://www.w3.org/2000/svg" width="104" height="104" fill="none">
    <circle cx="54.17" cy="54.17" r="49.83" fill="#000" />
    <circle cx="49.83" cy="49.83" r="49.48" fill="#BFE34B" stroke="#000" stroke-width=".7" />
    <path fill="#fff" stroke="#000" stroke-width=".7"
        d="M56.18 69.52H50.8v.7h5.37v-.7Zm14.86 0H60.69v.7h10.35v-.7Zm-39.96.7 14.9-.06v-.7l-14.9.06v.7ZM16.99 56.46h68.06v5.17c0 .4-.16 1.1-.46 1.95-.3.84-.74 1.8-1.26 2.69-.51.9-1.1 1.72-1.73 2.32-.64.6-1.25.92-1.82.93l-8.13-.06h-.35V76.83c0 .64-.11 1.09-.34 1.38-.22.28-.59.47-1.27.47H32.5c-.68 0-1.09-.2-1.34-.52-.27-.35-.42-.91-.42-1.77V69.52h-8.91c-.62 0-1.23-.35-1.83-1a9.78 9.78 0 0 1-1.58-2.48c-.45-.96-.8-2-1.05-2.91a9.52 9.52 0 0 1-.38-2.2v-4.47ZM46.55 47.82a6.3 6.3 0 0 1 2.37-7.14 7.32 7.32 0 0 1 7.62-.82 9.7 9.7 0 0 1 2.56 2.62c.86 1.2 1.68 2.67 2.39 4.26 1.36 3.08 2.27 6.56 2.22 9.4l-9.6-.08c-3.56-2.17-6.6-5.23-7.56-8.24Z" />
    <path stroke="#000" stroke-linecap="round" stroke-width=".7"
        d="m52.74 45.67 5.25-4.21m-.78 10.32 4.57-3.65m-9.54 1.96L49.9 52" />
    <path fill="#fff" stroke="#000" stroke-width=".7"
        d="M51.15 35.94c.35 1.12.35 2.18.1 2.9l-.22.52-.95.26v-.1c0-.95-.45-2.13-1.26-3.18a6.73 6.73 0 0 0-1.42-1.38c.05-1 .51-1.56 1.05-1.73.38-.12.88.02 1.4.52.52.48 1 1.25 1.3 2.19Zm-1.76 3.56-.05.4-.95.71-.45-.05a4.95 4.95 0 0 1-2.3-1.77 6.39 6.39 0 0 1-.62-.95 4.13 4.13 0 0 1-.5-1.74c-.02-.5.13-.83.36-1.01.18-.14.45-.2.8-.15.34.05.75.21 1.18.5.48.3.97.76 1.4 1.33a4.88 4.88 0 0 1 1.13 2.73Zm-4.31-.28a5.6 5.6 0 0 0 2.7 2.02l-1.14 1.24h-.07l-.02-.01h-.02c-.7.01-1.54-.2-2.39-.67a5 5 0 0 1-1.83-1.64c-.36-.6-.4-1.09-.22-1.42.11-.22.41-.4.9-.49.44-.07.96-.05 1.49.05.17.31.37.62.6.92Z" />
    <path fill="#fff"
        d="M30.3 18.57c-5.08 14.51-2.25 20.83 6.04 31.07-16.41 5.78-22.54-30.79-6.04-31.07Z" />
    <path stroke="#000" stroke-width=".7"
        d="m32.1 16.7-1.8 1.87m0 0c-5.08 14.51-2.25 20.83 6.04 31.07-16.41 5.78-22.54-30.79-6.04-31.07Zm-5.34 9.26c-.57 6.09-.23 9.39 2.08 14.63" />
    <path fill="#fff"
        d="m72.16 52-4.89-1.58V37.77c-3.26-.1-3.26-6.43 1.63-4.73 0-3.28 3.26-3.28 4.88-1.58 1.63-1.65 6.52-.07 4.89 3.16 4.88-1.58 4.88 6.33 0 6.32L72.16 52Z" />
    <path stroke="#000" stroke-width=".7"
        d="m72.97 41.48-2.44 5.78m-3.26 3.16L72.16 52l6.5-11.06c4.9 0 4.9-7.9 0-6.32 1.64-3.23-3.25-4.8-4.88-3.16-1.62-1.7-4.88-1.7-4.88 1.58-4.89-1.7-4.89 4.62-1.63 4.73v12.65Z" />
    <circle cx="56.06" cy="23.06" r="2.4" fill="#fff" stroke="#000" stroke-width=".7" />
    <circle cx="37.73" cy="30.39" r="2.4" fill="#fff" stroke="#000" stroke-width=".7" />
    <circle cx="85.4" cy="48.73" r="2.4" fill="#FDFDFD" stroke="#000" stroke-width=".7" />
    <circle cx="19.39" cy="48.73" r="2.4" fill="#FFFDFD" stroke="#000" stroke-width=".7" />
    <circle cx="84.5" cy="19.5" r="19.5" fill="#1A1A1A" />
    <path fill="#FFFEFE"
        d="M76 28v-3.65l10.25-10.27 3.64 3.42L79.64 28H76ZM91.03 16.59l-3.64-3.65 1.59-1.6c.45-.45.91-.45 1.37 0l2.27 2.28c.46.46.46.92.23 1.14l-1.82 1.83Z" />
</svg>