<svg xmlns="http://www.w3.org/2000/svg" width="104" height="104" fill="none">
    <circle cx="54.17" cy="54.17" r="49.83" fill="#000" />
    <circle cx="49.83" cy="49.83" r="49.48" fill="#BFE34B" stroke="#000" stroke-width=".7" />
    <path fill="#fff"
        d="M78.54 51.45c0-25.31-.08-28.15-.88-29.08-1.41-1.67-2.7 0-4.06 1.27-8.03 8.8-6.31 21.74-1.7 31.72l-1.03 24.86c0 2.65 7.16 2.87 7.16.3 0 0 .51-12.19.51-29.07Z" />
    <circle cx="49.18" cy="52.65" r="21.02" fill="#fff" />
    <path stroke="#000" stroke-width=".7"
        d="M78.54 51.45c0-25.31-.08-28.15-.88-29.08-1.41-1.67-2.7 0-4.06 1.27-8.03 8.8-6.31 21.74-1.7 31.72l-1.03 24.86c0 2.65 7.16 2.87 7.16.3 0 0 .51-12.19.51-29.07Z" />
    <path fill="#fff"
        d="M21.67 37.53c-.08-2.25 0-2.86 0-2.86L32.5 26l.59 11.53c0 1.57-1.47 2.42-3 4.18.03 5.07 0 33.12.25 38.19 0 1.44-1.58 2.42-3.05 2.42-1.41 0-3.01-.98-3.01-2.35l.57-38.12c-1.3-1.2-3.1-2.4-3.18-4.32Z" />
    <path stroke="#000" stroke-linecap="round" stroke-linejoin="round" stroke-width=".7"
        d="M22.54 21.83s-.95 13.45-.87 15.7c.08 1.92 1.88 3.12 3.19 4.32l-.58 38.12c0 1.37 1.6 2.35 3 2.35 1.48 0 3.06-.98 3.06-2.42-.25-5.07-.22-33.12-.25-38.2 1.53-1.75 3-2.6 3-4.17-.63-7.7-1.47-15.86-1.47-15.86m-5.74.16v13.7m3.16 0v-13.7" />
    <circle cx="48.84" cy="52.63" r="15.38" stroke="#000" stroke-width=".7" />
    <path stroke="#000" stroke-width=".7"
        d="M39.15 33.92a21.21 21.21 0 0 1 25.49 4.02m1.25 27.97a21.24 21.24 0 0 1-28.45 4.43m-3.56-3a21.5 21.5 0 0 1-.63-.69M39.36 52.84a9.7 9.7 0 0 1 6.11-9.01m3.58-.68h.21" />
</svg>