<svg xmlns="http://www.w3.org/2000/svg" width="24" height="24" fill="none">
    <g clip-path="url(#a)">
        <circle cx="12.5" cy="12.5" r="11.5" fill="#000" />
        <circle cx="11.5" cy="11.5" r="11.3" fill="#BFE34B" stroke="#000" stroke-width=".4" />
        <path fill="#fff"
            d="M18.13 11.87c0-5.84-.02-6.5-.2-6.7-.33-.4-.63 0-.95.29-1.85 2.03-1.45 5.01-.39 7.32l-.24 5.73c0 .61 1.66.66 1.66.07 0 0 .11-2.81.11-6.7Z" />
        <circle cx="11.35" cy="12.15" r="4.85" fill="#fff" />
        <path stroke="#000" stroke-width=".2"
            d="M18.13 11.87c0-5.84-.02-6.5-.2-6.7-.33-.4-.63 0-.95.29-1.85 2.03-1.45 5.01-.39 7.32l-.24 5.73c0 .61 1.66.66 1.66.07 0 0 .11-2.81.11-6.7Z" />
        <path fill="#fff"
            d="M5 8.66C4.98 8.14 5 8 5 8l2.5-2 .14 2.66c0 .36-.34.56-.7.96.01 1.18 0 7.65.06 8.82 0 .33-.36.56-.7.56-.33 0-.7-.23-.7-.55l.14-8.8c-.3-.27-.72-.54-.74-.99Z" />
        <path stroke="#000" stroke-linecap="round" stroke-linejoin="round" stroke-width=".2"
            d="M5.2 5.04s-.22 3.1-.2 3.62c.02.45.43.72.74 1l-.14 8.8c0 .31.37.54.7.54.34 0 .7-.23.7-.56-.06-1.17-.05-7.64-.06-8.82.36-.4.7-.6.7-.96C7.49 6.89 7.3 5 7.3 5m-1.33.04V8.2m.73 0V5.04" />
        <circle cx="11.27" cy="12.14" r="3.55" stroke="#000" stroke-width=".2" />
        <path stroke="#000" stroke-width=".2"
            d="M9.03 7.83a4.89 4.89 0 0 1 5.89.92m.29 6.46a4.9 4.9 0 0 1-6.57 1.02m-.82-.69-.15-.16M9.08 12.2c0-.95.59-1.76 1.41-2.09m.83-.15h.05" />
    </g>
    <defs>
        <clipPath id="a">
            <path fill="#fff" d="M0 0h24v24H0z" />
        </clipPath>
    </defs>
</svg>