<svg xmlns="http://www.w3.org/2000/svg" width="24" height="24" fill="none">
    <path stroke="#ffffff" stroke-linecap="round" stroke-linejoin="round" stroke-width="2"
        d="m14.28 9.72-4.56 4.56m4.56-4.56a3.22 3.22 0 1 0-4.55 4.55m4.55-4.55L21 3M9.72 14.28 3 21M17.24 6.4A8.67 8.67 0 0 0 12 4.55c-3.18 0-6.14 1.87-8.2 5.1a4.8 4.8 0 0 0 0 4.68 12.9 12.9 0 0 0 2.44 2.85m2.54 1.59a8.3 8.3 0 0 0 3.22.66c3.18 0 6.14-1.87 8.2-5.1a4.8 4.8 0 0 0 0-4.68c-.3-.47-.62-.9-.95-1.32m-4.1 4.29a3.2 3.2 0 0 1-2.53 2.54" />
</svg>