<svg xmlns="http://www.w3.org/2000/svg" width="24" height="24" fill="none">
    <path stroke="#ffffff" stroke-linecap="round" stroke-linejoin="round" stroke-width="2"
        d="M15.3 12a3.38 3.38 0 0 1-3.3 3.47A3.38 3.38 0 0 1 8.7 12 3.38 3.38 0 0 1 12 8.54c1.82 0 3.3 1.55 3.3 3.46Z" />
    <path stroke="#ffffff" stroke-linecap="round" stroke-linejoin="round" stroke-width="2"
        d="M12 20c3.25 0 6.27-2.01 8.38-5.5a5.38 5.38 0 0 0 0-5C18.28 6 15.25 4 12 4 8.75 4 5.73 6.01 3.62 9.5a5.38 5.38 0 0 0 0 5C5.72 18 8.75 20 12 20Z" />
</svg>