<svg xmlns="http://www.w3.org/2000/svg" width="24" height="24" fill="none">
    <path fill="#fff"
        d="M7.53 21.93c-1.47-1.08-2.24-1.9-2.31-2.5-.07-.57.47-1.6 1.62-3.1-1.37-.52-2.15-1-2.34-1.47-.18-.46.06-1.33.72-2.6-.83-1.88-1.07-3.2-.72-3.92.35-.73 1.52-1.35 3.5-1.87.41-.97.9-1.62 1.49-1.94.59-.32 1.6-.5 3.02-.53l2.16 1.2c2.36.3 3.7.72 4.05 1.27.34.56.11 1.97-.67 4.26.56.96.94 1.7 1.14 2.24.19.53.19 1.16 0 1.89-.39 1.1-.77 1.73-1.14 1.91-.37.18-1.15.18-2.32 0l-1.68 2.67-2.5.53c-.64 1.09-1.19 1.74-1.65 1.97-.45.22-1.24.22-2.37 0Z" />
    <path fill="#DBBFFF"
        d="M6.52 16.4a3.01 3.01 0 0 0 2.69-.03v.06a3.28 3.28 0 0 0 2.64 3.21 3.28 3.28 0 1 1-5.33-3.24Z" />
    <path fill="#CE87FF"
        d="M10.97 21.21c-1.25-.37-2.59-.95-3.37-1.91-.5-.61-1.1-1.64-1.55-2.4.14-.18.3-.35.47-.5a3.01 3.01 0 0 0 2.69-.03v.06a3.28 3.28 0 0 0 2.64 3.21c-.14.6-.45 1.14-.88 1.57Z" />
    <path fill="#E2CDFF"
        d="M8.8 6.83c-.3-.33-.78-1.04-.3-1.33.48-.29.94-1.48 1.5-1.5.56-.02 3-.26 3.5 0s.58 2.19.9 2.66a3.35 3.35 0 0 1-.27 1.5 3.56 3.56 0 0 0-3.96-.28A3.29 3.29 0 0 0 8.8 6.83Z" />
    <path fill="#DBBFFF"
        d="M9.2 16.37a3 3 0 0 0 1.58-2.05c.66.23 1.38.25 2.06.08a3.28 3.28 0 0 0 2.88 2.56 3.28 3.28 0 0 1-6.51-.59Z" />
    <path fill="#CE87FF"
        d="M14.94 18.6c-.98-.45-1.76-1.06-1.95-1.9-.4.1-.3.27-.73.27-.56 0-1.53.22-2.04.04l-.83.5a3.27 3.27 0 0 1-.18-1.08v-.06a3.01 3.01 0 0 0 1.57-2.05c.66.23 1.38.25 2.06.08a3.28 3.28 0 0 0 2.88 2.56c-.1.6-.37 1.17-.78 1.64Z" />
    <path fill="#DBBFFF"
        d="M10.78 14.32a3 3 0 1 1-5.54-2.14 3.28 3.28 0 0 0 3.69.67c.43.69 1.08 1.2 1.85 1.47Z" />
    <path fill="#CE87FF"
        d="M10.3 15.42c-.3-.26-.57-.57-.78-.91a3.65 3.65 0 0 1-4.1-.74c-.18.31-.31.65-.38 1a3.01 3.01 0 0 1 .2-2.59 3.28 3.28 0 0 0 3.69.67c.43.69 1.08 1.2 1.85 1.47-.08.4-.24.77-.48 1.1Z" />
    <path fill="#E2CDFF"
        d="m19.03 7.97.01.26a3.27 3.27 0 0 1-1.33 2.64 3.26 3.26 0 0 0-2.23-.4c.17-.43.25-.89.24-1.35-.02-.45-1.52-1.26-1.72-1.68.56-.33-.5-2.44 2.5-2.44.65.03 2.01 2.59 2.53 2.97ZM6.95 13.1c-.53-.48-1.82-.87-1.95-1.57-.13-.7-.82-2.06-.5-2.7.32-.64 2.36-2 3-2.32.64-.32 1.57.8 2.27.94.15.14.28.28.4.44a3.55 3.55 0 0 0-1.24 4.97 3.3 3.3 0 0 1-1.98.24Z" />
    <path fill="#DBBFFF" d="M12.83 14.4a3.55 3.55 0 0 0 2.63-3.93 3.28 3.28 0 1 1-2.63 3.93Z" />
    <path fill="#CE87FF"
        d="M18.5 11.53c-.4-.08-.8-.08-1.2 0a3.56 3.56 0 0 1-2.62 3.92c.12.55.38 1.05.74 1.46a3.28 3.28 0 0 1-2.59-2.51 3.55 3.55 0 0 0 2.63-3.93 3.29 3.29 0 0 1 3.04 1.06Z" />
    <path fill="#E2CDFF"
        d="M12.05 14.46c-.66-.4-3.27-.74-3.55-1.46-.28-.72.29-2.65.5-3.4.21-.75 1.38-1.63 2-2.1.62-.47 2.14.36 2.92.36h.02a3.56 3.56 0 0 1-1.87 6.6h-.02Z" />
    <path fill="#000"
        d="M8.66 22.64a3.76 3.76 0 0 1-2.45-6.6l.24-.21.29.13a2.53 2.53 0 0 0 2.25-.02l.71-.36-.01.8v.05a2.8 2.8 0 0 0 2.25 2.74l.5.1-.12.48a3.76 3.76 0 0 1-3.66 2.9Zm-2.03-5.68a2.8 2.8 0 1 0 4.6 3.01 3.77 3.77 0 0 1-2.45-2.92 3.5 3.5 0 0 1-2.15-.09Zm7.7-8.03-.5-.38a3.04 3.04 0 0 0-3.42-.25l-.36.2-.26-.33a2.8 2.8 0 0 0-1.98-1.09l-.48-.04.04-.47a3.76 3.76 0 1 1 7.2 1.79l-.25.57Zm-2.4-2a4 4 0 0 1 1.93.5A2.8 2.8 0 0 0 8.4 6.2c.72.16 1.38.54 1.9 1.08a4.04 4.04 0 0 1 1.64-.36Z" />
    <path fill="#000"
        d="M12.49 20.18a3.76 3.76 0 0 1-3.76-3.75v-.36l.26-.13a2.51 2.51 0 0 0 1.32-1.72l.11-.53.52.18c.57.2 1.19.22 1.77.06l.49-.12.1.49a2.8 2.8 0 0 0 2.47 2.18l.5.05-.07.5a3.76 3.76 0 0 1-3.71 3.15Zm-2.8-3.54a2.8 2.8 0 0 0 5.44.7 3.77 3.77 0 0 1-2.63-2.38c-.47.06-.94.04-1.4-.05a3.46 3.46 0 0 1-1.4 1.73Z" />
    <path fill="#000"
        d="M7.84 17.18a3.49 3.49 0 0 1-3.01-5.24l.31-.54.44.44a2.8 2.8 0 0 0 3.15.58l.38-.18.23.36c.37.59.93 1.04 1.6 1.27l.4.14-.09.41a3.49 3.49 0 0 1-3.41 2.76Zm-2.42-4.22a2.53 2.53 0 0 0 4.78 1.64 4.06 4.06 0 0 1-1.44-1.16 3.77 3.77 0 0 1-3.34-.48Zm12.32-1.51-.28-.16a2.8 2.8 0 0 0-1.92-.35l-.5.09-.06-.5c-.1-.78-.52-1.5-1.15-1.98l-.29-.23.15-.34a2.8 2.8 0 0 0-.06-2.34l-.19-.4.38-.22a3.75 3.75 0 0 1 4.17 6.24l-.25.19Zm-1.7-1.51c.55 0 1.1.12 1.6.36a2.81 2.81 0 0 0 .92-2.07 2.8 2.8 0 0 0-3.88-2.58c.26.77.26 1.6.02 2.37a4 4 0 0 1 1.14 1.92h.2Z" />
    <path fill="#000"
        d="M7.57 13.63a3.76 3.76 0 1 1 2.98-6.04l.34.44-.48.27a3.07 3.07 0 0 0-1.07 4.3l.29.46-.5.23c-.49.22-1.02.34-1.56.34Zm0-6.56a2.8 2.8 0 1 0 .68 5.52 4.03 4.03 0 0 1 1.2-4.8 2.78 2.78 0 0 0-1.88-.72Zm8.47 10.38a3.76 3.76 0 0 1-3.67-2.95l-.1-.45.44-.12a3.07 3.07 0 0 0 2.27-3.4l-.06-.45.45-.09a3.76 3.76 0 1 1 .66 7.46Zm-2.61-2.74a2.8 2.8 0 1 0 2.6-3.81h-.06v.06a4.03 4.03 0 0 1-2.54 3.75Z" />
    <path fill="#000"
        d="M12.07 14.94a4.05 4.05 0 1 1 0-8.1 4.05 4.05 0 0 1 0 8.1Zm0-7.13a3.09 3.09 0 1 0 0 6.18 3.09 3.09 0 0 0 0-6.18Zm2.24-2.2a.48.48 0 0 1-.42-.7c.5-.96 1.05-1.7 1.6-2.2a3.1 3.1 0 0 1 1.93-.87.48.48 0 0 1 .05.96c-.94.04-1.86.9-2.73 2.56a.48.48 0 0 1-.43.25Z" />
    <path fill="#72BD87"
        d="M8.76 4.63C8.2 4.1 7.75 3.41 7.4 2.55a4.9 4.9 0 0 1 4.11-.47 4.9 4.9 0 0 1 2.84 3l-.39.19a3.17 3.17 0 0 0-5.2-.64Z" />
    <path fill="#000"
        d="m13.75 5.9-.21-.4a2.7 2.7 0 0 0-4.42-.55l-.33.37-.36-.34a6.26 6.26 0 0 1-1.47-2.25l-.16-.4.38-.2a5.37 5.37 0 0 1 4.5-.5A5.37 5.37 0 0 1 14.8 4.9l.16.4-.38.2a8.2 8.2 0 0 1-.42.2l-.41.2ZM8.03 2.77c.21.45.46.84.74 1.18a3.66 3.66 0 0 1 4.01-.5 3.85 3.85 0 0 0-3.2-1.13c-.5.06-1.02.21-1.55.45Z" />
</svg>