<svg xmlns="http://www.w3.org/2000/svg" width="24" height="24" fill="none">
    <g clip-path="url(#a)">
        <path fill="#F9AF49"
            d="m6.6 11.8.83 11.72H16l.85-11.72H6.59ZM17.2 3.35a3.23 3.23 0 0 0-3.24 3.13h3.26l-.24 3.33h.21a3.23 3.23 0 1 0 0-6.46Z" />
        <path fill="#D7EEFF"
            d="M13.96 6.58v-.1H6.2l.38 5.32h10.25l.14-1.99a3.23 3.23 0 0 1-3.02-3.23Z" />
        <path fill="#F9AF49" d="M13.96 6.48v.1a3.23 3.23 0 0 0 3.02 3.23l.24-3.33h-3.26Z" />
        <path fill="#000"
            d="M8.8 19.83a.48.48 0 0 0-.44.5l.06.8a.48.48 0 1 0 .95-.08l-.05-.78a.48.48 0 0 0-.51-.44Z" />
        <path fill="#000"
            d="M20.9 6.58A3.72 3.72 0 0 0 13.53 6H8.3L7.9.44A.48.48 0 0 0 7.05.2L3.18 5.63a.48.48 0 1 0 .78.55l3.1-4.34L7.34 6H6.2a.48.48 0 0 0-.48.51l.38 5.32.84 11.73c.02.25.23.44.48.44H16c.26 0 .46-.2.48-.44l.84-11.73.11-1.54a3.72 3.72 0 0 0 3.48-3.7Zm-4.36 2.68a2.77 2.77 0 0 1-2.08-2.3h2.24l-.16 2.3ZM7.4 6.96l.21 2.94a.48.48 0 0 0 .96-.06l-.2-2.88h5.12a3.72 3.72 0 0 0 2.97 3.26l-.08 1.1H7.04l-.32-4.36h.7Zm8.14 16.08H7.88L7.1 12.28h.69l.45 6.28a.48.48 0 1 0 .95-.06l-.44-6.22h7.57l-.77 10.76Zm1.94-13.72.2-2.8a.48.48 0 0 0-.47-.52H14.5a2.76 2.76 0 1 1 3 3.32Z" />
    </g>
    <defs>
        <clipPath id="a">
            <path fill="#fff" d="M0 0h24v24H0z" />
        </clipPath>
    </defs>
</svg>