<svg xmlns="http://www.w3.org/2000/svg" width="24" height="24" fill="none">
    <path fill="#fff"
        d="M5.87 19.1C3.18 16.55 3 12.44 5.07 8.85c2.08-3.6 5.73-5.49 9.3-4.45.02-.06.06-.13.1-.19.47-.82 1.57-1.07 2.45-.56.89.5 1.22 1.59.74 2.4a1.6 1.6 0 0 1-.11.19c2.68 2.56 2.86 6.67.79 10.26-2.07 3.6-5.73 5.5-9.3 4.45a1.6 1.6 0 0 1-.09.2c-.47.81-1.57 1.07-2.46.56-.88-.52-1.22-1.6-.74-2.42l.12-.17Z" />
    <path fill="#FBDB7B"
        d="M17.68 4.43a1.68 1.68 0 0 1-.13 1.8c2.68 2.56 2.86 6.67.79 10.26-2.07 3.6-5.73 5.5-9.3 4.45-.02.07-.05.13-.09.2-.29.5-.8.78-1.37.82C6 21.5 5.7 20 6 19.5c.04-.06 1.67.72 1.72.66C5.03 17.6 2 16 5.5 8.5c2.07-3.6 5.44-5.54 9-4.5.03-.07.96-.44 1-.5.29-.5 1.62.97 2.18.93Z" />
    <path fill="#F9AF49"
        d="M7.22 19.64c3.47-1.34 5.9-3.24 7.32-5.7 1.3-2.29 2.22-5.43 2.75-9.44.13-.04.26-.06.4-.07a1.68 1.68 0 0 1-.14 1.8c2.68 2.56 2.86 6.67.79 10.26-2.07 3.6-5.73 5.5-9.3 4.45a1.68 1.68 0 0 1-1.47 1.02 1.68 1.68 0 0 1 .15-1.8 7.14 7.14 0 0 1-.5-.52Z" />
    <path fill="#000"
        d="M7.46 22.44a2.42 2.42 0 0 1-2.3-1.7 2.13 2.13 0 0 1 .1-1.56 7.6 7.6 0 0 1-2.05-4.79c-.13-1.92.37-3.92 1.45-5.8a10.74 10.74 0 0 1 3.2-3.5l.54.79a9.78 9.78 0 0 0-2.91 3.2 9.27 9.27 0 0 0-1.32 5.25 6.64 6.64 0 0 0 2.03 4.43l.31.3-.26.34a1.13 1.13 0 0 0-.18 1.06c.1.35.34.64.66.82.65.38 1.46.2 1.8-.39l.07-.13.17-.4.41.12c1.61.47 3.29.31 4.86-.46a9.28 9.28 0 0 0 3.88-3.77 9.28 9.28 0 0 0 1.33-5.24 6.64 6.64 0 0 0-2.04-4.44l-.3-.3.25-.34.09-.12c.16-.28.2-.62.1-.94-.11-.35-.35-.64-.67-.82-.65-.38-1.46-.2-1.8.39l-.07.13-.89-.36.13-.25c.6-1.05 2-1.38 3.11-.74.53.3.92.79 1.1 1.36.17.54.13 1.09-.11 1.57a7.6 7.6 0 0 1 2.06 4.8c.13 1.91-.38 3.91-1.46 5.78a10.23 10.23 0 0 1-4.29 4.15 7.6 7.6 0 0 1-5.17.62c-.41.6-1.1.94-1.83.94Z" />
    <path fill="#D2F2CD"
        d="M10.51 6.2a4.9 4.9 0 0 0 3.7-1.85 4.9 4.9 0 0 0-3.7-1.85 4.9 4.9 0 0 0-3.7 1.85 4.9 4.9 0 0 0 3.7 1.85Z" />
    <path fill="#72BD87"
        d="M10.1 3.98h3.55a.26.26 0 0 1 .26.27v.19a.26.26 0 0 1-.26.26H10.1a.26.26 0 0 1-.27-.26v-.2a.26.26 0 0 1 .27-.26Z" />
    <path fill="#000"
        d="M10.6 6.68c-1.5 0-2.86-.68-4.05-2.01l-.29-.32.29-.32c1.2-1.33 2.56-2 4.05-2 1.5 0 2.87.67 4.06 2l.29.32-.3.32a5.37 5.37 0 0 1-4.05 2ZM7.57 4.35c.42.41.86.73 1.3.96a3.85 3.85 0 0 0 3.47 0c.44-.23.88-.55 1.3-.96a5.18 5.18 0 0 0-1.3-.96 3.85 3.85 0 0 0-3.47 0c-.45.23-.88.55-1.3.96ZM7.28 20.41a.47.47 0 0 1-.24-.06 7.97 7.97 0 0 1-2.6-2.2.47.47 0 1 1 .76-.55 7.1 7.1 0 0 0 2.31 1.94.47.47 0 0 1-.23.88Z" />
</svg>