<svg xmlns="http://www.w3.org/2000/svg" width="251" height="320" fill="none">
    <path fill="#FEFEFE" fill-rule="evenodd"
        d="M172.6 11.63c11.25 15.66 15.87 37.1 13.48 62.53-2.45 26.1-12.37 46.86-29.05 60.74-8.07 6.7-24.23 14.57-36.03 17.52C106.75 156 95.8 157 71.25 157H49v106H0v-8.95l18.25-.28 18.25-.27.26-52.75.26-52.75h18.81c31 0 48.98-2.7 66.46-9.98 20.44-8.5 37.26-25.43 44.9-45.19 6-15.48 8.65-35.96 6.9-53.27-1.35-13.46-3.31-21.07-7.88-30.56-1.98-4.13-3.8-7.95-4.04-8.5-1.05-2.42 6.44 5.57 10.43 11.13Zm-79.88 3.53c3.96 1.44 9.11 4.02 11.44 5.73 2.33 1.7 4.03 3.11 3.79 3.11-.25 0-3.98-.68-8.29-1.5C94.22 21.46 85.3 21 70.41 21H49v84H37V11.84l24.25.35c23.21.33 24.56.46 31.47 2.97Zm94.26 4.57c6.27 7 13.2 20.92 15.56 31.27 2.48 10.85 2.99 31.24 1.1 43.5-1.88 12.17-4.53 20.47-9.91 31-5.98 11.7-19.85 25.34-32.3 31.74-18.63 9.59-35.54 12.75-68.25 12.75-13.45 0-23.08.42-24.25 1.04-1.87 1-1.93 2.65-1.93 53V276H19v-8h36V162h23.4c25.84 0 39-1.58 54.1-6.51 28.87-9.42 49.14-30.64 56.37-59 7.25-28.47 4.4-59.38-7.3-78.8-4.27-7.1-2.02-6.25 5.41 2.04Zm-87.48 7.3c9.16 1.31 15.74 3.53 17.15 5.78 1.08 1.73.05 1.8-24.26 1.37L67 33.74V105H55V26l18.75.02c10.31.01 21.9.47 25.75 1.02ZM213.08 49.5c5.13 10.45 7.78 21.28 8.56 34.94 2.37 41.64-13.92 74-44.97 89.31-18.46 9.1-36.65 12.26-70.72 12.26H84v106H36v-10h36V176.25l27.25-.53c29.56-.57 38.72-1.92 55.23-8.16 37.64-14.24 56.96-46.9 55.25-93.44-.61-16.6-2.68-26.15-8.13-37.51l-3.4-7.11 5.47 5.99a70.2 70.2 0 0 1 9.4 14ZM104.15 42H119v9h-15.42c-8.48 0-16.13.27-17 .6C85.2 52.15 85 55.3 85 76.64c0 27.44.69 25.08-7.75 26.7l-3.25.62V40.71l7.65.64c4.2.36 14.33.65 22.5.65Zm116.42 9.25c10.38 13.7 14.42 26.61 15.16 48.46.6 17.84-.6 27.97-4.86 40.79-9.99 30.12-31.67 48.1-67.06 55.63-8.6 1.83-14.86 2.3-37.81 2.78l-27.5.59-.26 52.75-.26 52.75H50v-7.96l18.75-.27 18.75-.27.26-52.75.26-52.75 6.24-.04c21.7-.15 50.96-2.06 58.74-3.84 21.59-4.93 35.21-12.1 48.53-25.52 7.46-7.52 9.85-10.75 13.78-18.6 2.6-5.22 5.94-14 7.4-19.5 2.45-9.22 2.66-11.56 2.68-30 .02-23.8-1.45-30.7-10.17-47.75-.21-.41-.16-.75.11-.75.28 0 2.63 2.81 5.24 6.25Zm-101.94 8.87a32.18 32.18 0 0 0-.63 4.5c0 1.06-1.88 1.38-8 1.38h-8v12.84c0 14.09-.03 14.16-6.75 17.56L92 98.05V57h27.25l-.63 3.12ZM242.4 76.97a94.22 94.22 0 0 1 5.79 14.57c2.07 7.16 2.3 10.03 2.3 28.46 0 24.2-1.36 31.06-9.43 47.5-11.38 23.17-31.42 37.3-62.57 44.08-6.03 1.3-14.9 1.88-36 2.33l-28 .59-.26 52.75-.26 52.75H65v-9h39V205.3l24.75-.58c32.27-.76 46.66-3.28 63.87-11.2 19.5-8.96 34.86-25.1 42.24-44.38 5.42-14.13 6.63-21.8 6.59-41.64-.04-19.22-1.04-25.64-5.92-37.9l-2.42-6.1 2.91 3.42c1.6 1.88 4.48 6.4 6.4 10.05Z"
        clip-rule="evenodd" />
</svg>