<svg xmlns="http://www.w3.org/2000/svg" width="104" height="104" fill="none">
    <circle cx="54.17" cy="54.17" r="49.83" fill="#000" />
    <circle cx="49.83" cy="49.83" r="49.48" fill="#BFE34B" stroke="#000" stroke-width=".7" />
    <path fill="#fff" stroke="#000" stroke-width=".7"
        d="M56.18 69.52H50.8v.7h5.37v-.7Zm14.86 0H60.69v.7h10.35v-.7Zm-39.96.7 14.9-.06v-.7l-14.9.06v.7ZM16.99 56.46h68.06v5.17c0 .4-.16 1.1-.46 1.95-.3.84-.74 1.8-1.25 2.69-.52.9-1.12 1.72-1.74 2.32-.64.6-1.25.92-1.82.93l-8.13-.06h-.35V76.83c0 .64-.11 1.09-.34 1.38-.22.28-.59.47-1.27.47H32.5c-.68 0-1.09-.2-1.34-.52-.27-.35-.42-.91-.42-1.77V69.52h-8.91c-.62 0-1.23-.35-1.83-1a9.78 9.78 0 0 1-1.58-2.48c-.45-.96-.8-2-1.05-2.91a9.52 9.52 0 0 1-.38-2.2v-4.47ZM46.55 47.82a6.3 6.3 0 0 1 2.37-7.13 7.32 7.32 0 0 1 7.62-.83 9.7 9.7 0 0 1 2.56 2.62c.86 1.2 1.68 2.67 2.39 4.27 1.36 3.07 2.27 6.55 2.22 9.4l-9.6-.09c-3.56-2.17-6.6-5.23-7.56-8.24Z" />
    <path stroke="#000" stroke-linecap="round" stroke-width=".7"
        d="m52.74 45.67 5.25-4.21m-.78 10.32 4.57-3.65m-9.54 1.96L49.9 52" />
    <path fill="#fff" stroke="#000" stroke-width=".7"
        d="M51.15 35.94c.35 1.12.35 2.18.1 2.9l-.22.52-.95.27V39.52c0-.95-.45-2.13-1.26-3.18a6.73 6.73 0 0 0-1.42-1.38c.05-1 .51-1.56 1.05-1.73.38-.12.88.03 1.4.52.53.48 1 1.25 1.3 2.19Zm-1.76 3.56-.05.41-.95.7-.45-.05a4.95 4.95 0 0 1-2.3-1.76 6.39 6.39 0 0 1-.62-.96 4.13 4.13 0 0 1-.5-1.74c-.02-.5.13-.83.36-1 .18-.15.45-.21.8-.16.34.05.75.21 1.18.5.48.31.97.76 1.4 1.33a4.88 4.88 0 0 1 1.13 2.73Zm-4.31-.28a5.6 5.6 0 0 0 2.7 2.02l-1.13 1.24H46.53c-.69 0-1.54-.21-2.39-.68a5 5 0 0 1-1.83-1.64c-.36-.59-.4-1.09-.22-1.42.11-.22.41-.4.9-.48.44-.08.97-.06 1.49.05.17.3.37.61.6.91Z" />
    <path fill="#fff"
        d="M30.3 18.57c-5.08 14.5-2.25 20.83 6.04 31.07-16.41 5.78-22.54-30.8-6.04-31.07Z" />
    <path stroke="#000" stroke-width=".7"
        d="m32.1 16.7-1.8 1.87m0 0c-5.08 14.5-2.25 20.83 6.04 31.07-16.41 5.78-22.54-30.8-6.04-31.07Zm-5.34 9.26c-.57 6.09-.23 9.38 2.08 14.63" />
    <path fill="#fff"
        d="m76.04 49.1-5.5-1.83V32.6c-3.67-.13-3.67-7.46 1.83-5.49 0-3.8 3.67-3.8 5.5-1.84 1.84-1.9 7.34-.07 5.5 3.68 5.5-1.84 5.5 7.33 0 7.32L76.04 49.1Z" />
    <path stroke="#000" stroke-width=".7"
        d="m76.96 36.9-2.75 6.7m-3.67 3.67 5.5 1.83 7.33-12.83c5.5.01 5.5-9.16 0-7.32 1.84-3.75-3.66-5.59-5.5-3.68-1.83-1.97-5.5-1.97-5.5 1.84-5.5-1.97-5.5 5.36-1.83 5.49v14.67Z" />
    <circle cx="56.06" cy="23.06" r="2.4" fill="#fff" stroke="#000" stroke-width=".7" />
    <circle cx="37.73" cy="30.38" r="2.4" fill="#fff" stroke="#000" stroke-width=".7" />
    <circle cx="85.4" cy="48.73" r="2.4" fill="#FDFDFD" stroke="#000" stroke-width=".7" />
    <circle cx="19.39" cy="48.73" r="2.4" fill="#FFFDFD" stroke="#000" stroke-width=".7" />
</svg>