<svg xmlns="http://www.w3.org/2000/svg" width="48" height="48" fill="none">
    <path stroke="#000" stroke-width=".8"
        d="M30.85 37.88h10.93c1.6 0 3.22-3.65 3.22-4.71V30H5.63v2.75c0 1.22 1.24 5.12 2.97 5.12h13.64m6.03 0h-3.08" />
    <path stroke="#000" stroke-width=".8"
        d="M13.5 38.3v3.32c0 1 .34 1.51 1.2 1.51H36c.87 0 1.13-.5 1.13-1.26v-3.99" />
    <path stroke="#000" stroke-linecap="round" stroke-width=".8"
        d="m3 22.13 13.13 5.25M13.5 23.62c1.88-.48 2.21.09 2.53 1.17.01.05.17.06.2 0 .4-.6 1.78-.96 2.52.35-1.3-2.93 2.53-5.55 5.15-1.8.03.04.1.02.12-.03.31-1.15 3.92-1.1 3.92.16v0c1.31-5.28 6.56-3.93 6.56.01v0c-.44-1.82 3.88-2.65 3.94.09 0 .02.02.05.05.05 2.38-.14 2.56 1.26 2.57 2.1 0 .04.07.06.1.02.84-1.27 1.64.1 2.53 1.68" />
</svg>