<svg xmlns="http://www.w3.org/2000/svg" width="24" height="24" fill="none">
    <path stroke="#fff" stroke-width=".4"
        d="M15.26 17.52h5.2c.77 0 1.54-1.74 1.54-2.25v-1.5H3.25v1.3c0 .59.6 2.45 1.41 2.45h6.5m2.87 0h-1.46M7 17.71v1.59c0 .48.16.72.57.72h10.15c.4 0 .53-.24.53-.6v-1.9" />
    <path stroke="#FFFCFC" stroke-linecap="round" stroke-width=".4"
        d="m2 10.02 6.25 2.5M7 10.72c.78-.2 1-.01 1.14.38.02.05.25.08.3.05.27-.2.77-.22 1.06.3-.6-1.38 1.16-2.61 2.4-.93.03.04.12.02.14-.02.29-.47 1.84-.42 1.84.15v0c.62-2.51 3.12-1.87 3.12 0v0c-.2-.85 1.82-1.25 1.87.02 0 .03.03.05.06.05 1.02-.05 1.17.5 1.2.9 0 .05.07.07.1.03.38-.46.74.17 1.14.88" />
</svg>