<svg xmlns="http://www.w3.org/2000/svg" width="24" height="24" fill="none">
    <path fill="#F7B239"
        d="m14.5 11.5 3.25 6H6.5l2.81-5.7c.06.05.02 0 .11 0 .1 0 .2.04.27.11.07.08.12.18.12.3v1.48c0 .31.23.56.51.56a.5.5 0 0 0 .37-.16c.1-.1.15-.25.15-.4v-.64c0-.7.52-1.26 1.16-1.26.32 0 .61.14.82.37.2.23.34.55.34.9v.63c0 .31.23.56.52.56a.5.5 0 0 0 .36-.16c.1-.1.15-.25.15-.4V12.2c0-.23.18-.42.39-.42.1 0-.14-.23-.08-.29Z" />
    <path fill="#90BC42" d="m9.59 12.7 2.41-5-.48.16L9 12.06l.08.45" />
    <path fill="#CE8E5E" d="M10 11.91 7.2 17.7l-.7-.2 2.94-5.8.56.21Z" />
    <path fill="#72BD87"
        d="M14.95 11.65c.03.06.05.12.05.18 0 .1-.05.2-.14.28a.4.4 0 0 1-.25.08c-.21 0-.39.16-.39.36v1.27c0 .13-.05.25-.15.34a.55.55 0 0 1-.37.14c-.29 0-.53-.22-.53-.48v-.55c0-.3-.13-.57-.34-.76-.21-.2-.5-.32-.83-.32-.65 0-1.17.48-1.17 1.08v.55c0 .13-.06.25-.16.34a.55.55 0 0 1-.37.14c-.29 0-.52-.22-.52-.48v-1.27c0-.1-.05-.2-.12-.26a.4.4 0 0 0-.27-.1.4.4 0 0 1-.25-.08.34.34 0 0 1-.09-.46l2.61-4.17a.4.4 0 0 1 .68 0l2.6 4.17Z" />
    <path fill="#fff"
        d="M13.79 11.7a.22.22 0 0 1-.19-.1L12.03 9a.2.2 0 0 1 .08-.28c.1-.05.23-.02.29.08l1.57 2.59a.2.2 0 0 1-.08.28.22.22 0 0 1-.1.03ZM16.8 16.7a.2.2 0 0 1-.18-.1l-1.6-2.62a.19.19 0 0 1 .08-.26.2.2 0 0 1 .28.07l1.6 2.62c.05.09.02.2-.08.26a.21.21 0 0 1-.1.03Z" />
    <path fill="#000"
        d="m17.97 17.36-2.98-5.17c.11-.2.11-.41 0-.6l-2.48-4.3a.59.59 0 0 0-.5-.29c-.22 0-.42.11-.52.3L9 11.6c-.11.18-.11.4 0 .58v.01l-2.98 5.17a.23.23 0 0 0 .2.34h11.54a.23.23 0 0 0 .2-.34ZM9.4 11.82l2.48-4.3c.03-.06.1-.07.12-.07.03 0 .09 0 .12.07l2.48 4.3c.04.06.02.12 0 .14a.14.14 0 0 1-.12.07.6.6 0 0 0-.6.6v1.3a.27.27 0 0 1-.54 0v-.56a1.34 1.34 0 0 0-2.68 0v.56a.27.27 0 0 1-.55 0v-1.3a.6.6 0 0 0-.59-.6.14.14 0 0 1-.12-.07.14.14 0 0 1 0-.14Zm-2.78 5.42 2.76-4.78c.04.02.1.02.14.02.08 0 .14.07.14.14v1.31a.72.72 0 0 0 1.45 0v-.56a.9.9 0 0 1 1.78 0v.56a.72.72 0 0 0 1.45 0v-1.3c0-.08.06-.15.14-.15.05 0 .1 0 .14-.02l2.76 4.78H6.62Z" />
    <path fill="#000"
        d="M14.43 16.49a.23.23 0 1 0 0-.45.23.23 0 0 0 0 .45ZM8.49 16.02a.23.23 0 1 0 0-.46.23.23 0 0 0 0 .46ZM11.93 16.07a.23.23 0 1 0 0-.45.23.23 0 0 0 0 .45ZM12.26 14.07a.23.23 0 1 0 0-.45.23.23 0 0 0 0 .45Z" />
</svg>