<svg xmlns="http://www.w3.org/2000/svg" width="24" height="24" fill="none">
    <g clip-path="url(#a)">
        <path stroke="#FFFCFC" stroke-width=".4"
            d="M4.3 7.62h4.58M15 8h4.59M16.53 10.3h3.06M18.06 12.59h1.53M4.3 9.53h1.9" />
        <path stroke="#fff" stroke-width=".4"
            d="M14.74 2.86h6.02c.8 0 1.12-.33 1.12-.72V0H2v2.14c0 .44.37.72 1.24.72h7.15m3.04 0h-1.55" />
        <path stroke="#fff" stroke-width=".4"
            d="M3.5 2.86v.66c0 .44.24.66.86.66h15.35c.62 0 .8-.22.8-.55v-.77" />
        <path fill="#fff" d="M5.82 4.18h1.53v2.29H5.82z" />
        <path stroke="#FFFDFD" stroke-width=".4"
            d="m15 14.97.11.16-.12-.16a.8.8 0 0 1-1.26-.49l-.05-.22a.8.8 0 0 1-.01-.16V6.7c0-.44.36-.8.8-.8h5.65c.44 0 .8.36.8.8v7.75c0 .2-.08.4-.22.55l-1.2 1.27a.8.8 0 0 1-1.05.1l-2.01-1.43c-.43-.3-1-.3-1.42.01l-.03.02Z" />
        <path stroke="#FFFCFC" stroke-width=".4"
            d="m16.12 17.86-.03.4a.51.51 0 0 1-.77.4.51.51 0 0 0-.74.63l1.37 3.35a1 1 0 0 0 1.3.54l5.16-2.1a1 1 0 0 0 .55-1.31l-1.09-2.66a.8.8 0 0 0-1.5.07.8.8 0 0 1-.95.55l-2.36-.56a.76.76 0 0 0-.94.69Z" />
        <path stroke="#FFFDFD" stroke-width=".4"
            d="M9.41 5.9H3.76a.8.8 0 0 0-.8.8v5.05c0 .55.6.89 1.07.6.4-.23.9-.2 1.26.1l.72.57a.8.8 0 0 0 1.07-.06l.8-.8c.34-.35.89-.41 1.3-.16a.68.68 0 0 0 1.03-.58V6.71a.8.8 0 0 0-.8-.8Z" />
        <path fill="#fff" d="m17.23 3.41 1.46.47-.87 2.7-1.46-.48z" />
    </g>
    <defs>
        <clipPath id="a">
            <path fill="#fff" d="M0 0h24v24H0z" />
        </clipPath>
    </defs>
</svg>