<svg xmlns="http://www.w3.org/2000/svg" width="48" height="48" fill="none">
    <g clip-path="url(#a)">
        <path stroke="#000" stroke-width=".8"
            d="M8.62 15.52h9.25M30.2 16.3h9.24M33.28 20.97h6.16M36.36 25.64h3.08M8.62 19.41h3.85M29.66 5.82h12.15c1.63 0 2.25-.67 2.25-1.45V0H4v4.37c0 .9.75 1.45 2.5 1.45h14.4m6.14 0H23.9M7 5.82v1.34c0 .9.5 1.35 1.76 1.35h30.92c1.25 0 1.63-.45 1.63-1.12V5.82" />
        <path fill="#000" d="M11.7 8.51h3.08v4.67H11.7z" />
        <path stroke="#000" stroke-width=".8"
            d="M28.11 12.03h13.41c.33 0 .6.26.6.6v17.23a.6.6 0 0 1-.16.4l-3.31 3.54a.6.6 0 0 1-.8.08L32.5 30a1.4 1.4 0 0 0-1.67.02l-1.94 1.47a.6.6 0 0 1-.95-.36l-.42-2.18a.6.6 0 0 1 0-.11V12.63c0-.34.26-.6.6-.6Z" />
        <path stroke="#000" stroke-width=".8"
            d="m30.88 38.03-.13-.08c-.82-.5-1.8.35-1.44 1.25l3.19 7.87a1 1 0 0 0 1.3.55l12.28-5.08a1 1 0 0 0 .55-1.3l-3.25-8.02c-.35-.88-1.61-.81-1.88.1l-.65 2.24a1 1 0 0 1-1.2.7l-5.91-1.41a1 1 0 0 0-1.23.9l-.11 1.5a1 1 0 0 1-1.52.78ZM19.95 12.03H6.55a.6.6 0 0 0-.6.6v12.8c0 .46.5.75.9.5l1.73-1.04a1.4 1.4 0 0 1 1.61.1l2.6 2.11c.24.2.59.18.8-.04l2.67-2.7a1.4 1.4 0 0 1 1.72-.2l1.66 1a.6.6 0 0 0 .9-.51V12.63a.6.6 0 0 0-.6-.6Z" />
        <path fill="#000" d="m34.69 6.95 2.93.95-1.75 5.5-2.93-.95z" />
    </g>
    <defs>
        <clipPath id="a">
            <path fill="#fff" d="M0 0h48v48H0z" />
        </clipPath>
    </defs>
</svg>