<svg xmlns="http://www.w3.org/2000/svg" width="48" height="48" fill="none">
    <path stroke="#000" stroke-width=".8"
        d="M8.62 16.35h9.25M30.2 17.12h9.24M33.27 21.74h6.17M36.36 26.37h3.08M8.62 20.2h3.85M29.66 6.76h12.15c1.62 0 2.25-.66 2.25-1.44V1H4v4.32c0 .89.75 1.44 2.5 1.44h14.4m6.13 0H23.9M7 6.76v1.33c0 .88.5 1.33 1.76 1.33h30.92c1.25 0 1.63-.45 1.63-1.11V6.76" />
    <path fill="#000" d="M11.7 9.42h3.08v4.62H11.7z" />
    <rect width="14.61" height="30.02" x="27.51" y="12.9" stroke="#000" stroke-width=".8" rx=".6" />
    <path stroke="#000" stroke-width=".8"
        d="M19.95 12.9H6.55a.6.6 0 0 0-.6.6v12.64c0 .47.5.76.9.52l1.74-1.05a1.4 1.4 0 0 1 1.6.1l2.6 2.1c.24.19.59.17.8-.05l2.67-2.66a1.4 1.4 0 0 1 1.71-.22l1.67 1c.4.25.9-.04.9-.5V13.5a.6.6 0 0 0-.6-.6Z" />
    <path fill="#000" d="m34.69 7.88 2.93.94-1.75 5.44-2.93-.94z" />
</svg>