<svg xmlns="http://www.w3.org/2000/svg" width="24" height="24" fill="none">
    <path fill="#FBDB7B" d="M12.5 22.5 4.5 5l8-2.5 8 1.5-8 18.5Z" />
    <path fill="#CE8E5E"
        d="M3.5 4 4 3l5.5-1.5h6l4 1 2 1.5-.5 1-.5.5h-1l-3-1L14 4h-3.5l-2 .5-4 1-1-.5V4Z" />
    <circle cx="10.25" cy="7.25" r="1.25" fill="#D7514A" />
    <circle cx="14.75" cy="9.85" r="1.25" fill="#D7514A" />
    <circle cx="11.75" cy="14.25" r="1.25" fill="#D7514A" />
    <path fill="#000"
        d="M12.35 1a20.53 20.53 0 0 0-6.66 1.1c-.5.22-1.14.44-1.68.76S3 3.66 3 4.33c0 .84.68 1.53 1.52 1.53h.08l7.52 17a.25.25 0 0 0 .23.14.25.25 0 0 0 .23-.15l6.9-15.58a.26.26 0 0 0-.14-.34.25.25 0 0 0-.33.13l-6.66 15.06L5.11 5.76c.28-.08.54-.19.77-.28a17.72 17.72 0 0 1 12.94 0c.39.15.87.38 1.36.38.84 0 1.52-.69 1.52-1.53 0-.68-.47-1.15-1.01-1.47-.54-.32-1.19-.54-1.68-.76l-.02-.01A20.53 20.53 0 0 0 12.35 1Zm0 .51c1.82 0 4.3.28 6.45 1.05h.02c.52.24 1.15.46 1.62.74.47.29.75.58.75 1.03 0 .56-.45 1.02-1 1.02-.33 0-.78-.19-1.18-.35A18.26 18.26 0 0 0 5.69 5c-.4.16-.85.35-1.17.35-.57 0-1.01-.46-1.01-1.02 0-.45.28-.74.75-1.03.47-.28 1.1-.5 1.62-.73l.02-.01a20.13 20.13 0 0 1 6.45-1.05Zm-2.02 4.35c-.84 0-1.52.7-1.52 1.54 0 .84.68 1.53 1.52 1.53.83 0 1.51-.69 1.51-1.53 0-.85-.68-1.54-1.51-1.54Zm0 .51c.56 0 1 .46 1 1.03 0 .56-.44 1.02-1 1.02S9.32 7.96 9.32 7.4c0-.57.45-1.03 1-1.03Zm4.3 2.05c-.84 0-1.52.69-1.52 1.54 0 .84.68 1.53 1.51 1.53a1.53 1.53 0 0 0 0-3.07Zm0 .51c.56 0 1 .46 1 1.03 0 .56-.44 1.02-1 1.02-.57 0-1.02-.46-1.02-1.02 0-.57.45-1.03 1.01-1.03Zm-2.79 3.84c-.83 0-1.51.69-1.51 1.53 0 .85.68 1.54 1.51 1.54.84 0 1.52-.69 1.52-1.54 0-.84-.68-1.53-1.52-1.53Zm0 .51c.57 0 1.02.46 1.02 1.02a1.01 1.01 0 1 1-2.02 0c0-.56.44-1.02 1-1.02Z" />
</svg>