<svg xmlns="http://www.w3.org/2000/svg" width="24" height="24" fill="none">
    <g clip-path="url(#a)">
        <path fill="#CC5BA5"
            d="M11.86 2.79c-1.2 1.09-3.5 1.05-3.5 1.05-1.2 0-2.17.97-2.17 2.16 0 1.2.98 2.17 2.17 2.17h1.95c.53 0 1.01-.2 1.39-.5 1.26-.88 1.12-3.06.9-4.4-.18-1-.74-.48-.74-.48Z" />
        <path fill="#72BD87"
            d="M11.49 10.63c.27.12.6.01.75-.25l4.36-7.55L20 1.5A.6.6 0 1 0 19.58.4l-3.6 1.4a.6.6 0 0 0-.3.25L11.2 9.8a.6.6 0 0 0 .28.84Z" />
        <path fill="#D2F2CD"
            d="M14.17 5.66c0-.28 0-.59-.05-.92l-2.91 5.05a.6.6 0 0 0 1.03.59l2.44-4.23a3.5 3.5 0 0 0-.5-.49Z" />
        <path fill="#CC5BA5"
            d="M11.85 7.55h-.68c-.82 0-1.53-.48-1.87-1.18h.84a.36.36 0 1 0 0-.71H9.1l-.01-.19c0-.55.47-1.35.9-1.82-.87.2-1.64.19-1.64.19-1.2 0-2.17.97-2.17 2.16 0 1.2.98 2.17 2.17 2.17h1.95c.53 0 1.01-.2 1.39-.5l.15-.12Z" />
        <path fill="#F07CC8"
            d="M12.06 10.55H6.85A2.04 2.04 0 0 1 4.8 8.51v-.1c0-1.12.92-2.04 2.04-2.04h5.21c1.12 0 2.04.92 2.04 2.04v.1c0 1.13-.92 2.04-2.04 2.04Z" />
        <path fill="#CC5BA5"
            d="M10.34 7.95H8.15a2.05 2.05 0 0 1 1.99-1.58h-3.3c-1.11 0-2.03.92-2.03 2.04v.1c0 1.13.92 2.04 2.04 2.04h3.29A2.04 2.04 0 0 1 8.1 8.66h2.23a.36.36 0 1 0 0-.71Z" />
        <path fill="#F07CC8"
            d="M12.86 12.81h-6.8a2.08 2.08 0 0 1-2.08-2.07c0-1.14.93-2.08 2.08-2.08h6.8a2.08 2.08 0 0 1 0 4.15Z" />
        <path fill="#F07CC8"
            d="M7.27 10.74c0-1.14.93-2.08 2.07-2.08H6.06a2.08 2.08 0 0 0 0 4.15h3.28a2.08 2.08 0 0 1-2.07-2.07Z" />
        <path fill="#C2DFF6"
            d="m4.69 13.56 1.85 9.46c.07.36.39.62.75.62h4.4c.38 0 .7-.26.76-.63l1.77-9.5-9.53.05Z" />
        <path fill="#96C8EF"
            d="m4.69 13.56 1.85 9.46c.07.36.39.62.75.62h1.84a.77.77 0 0 1-.75-.62l-1.85-9.46H4.69Z" />
        <path fill="#5AAAE7" d="m4.69 13.56.52 2.66h1.84l-.52-2.66H4.69Z" opacity=".5" />
        <path fill="#CC5BA5"
            d="m5.7 13.13 1.63 8.91s.1.65.72.65h2.9c.59 0 .72-.65.72-.65l1.68-8.9H5.7Z" />
        <path fill="#F07CC8"
            d="m9.56 22.04-1.62-8.9H5.71l1.62 8.9s.1.65.72.65h2.9-.67c-.6 0-.72-.65-.72-.65Z" />
        <path fill="#78B9EB" d="M5.21 16.22h8.51l.5-2.7-9.53.04.52 2.66Z" />
        <path fill="#C2DFF6"
            d="M15.18 11.45a.57.57 0 0 0-.44-.22H4.18a.57.57 0 0 0-.56.7l.4 1.7c.06.27.3.45.56.45h9.75c.27 0 .5-.18.56-.44l.4-1.7a.57.57 0 0 0-.1-.5Z" />
        <path fill="#96C8EF"
            d="m5.86 13.64-.4-1.7a.57.57 0 0 1 .56-.7H4.18a.57.57 0 0 0-.56.7l.4 1.7c.06.26.3.44.56.44h1.84a.57.57 0 0 1-.56-.44ZM13.32 13.01h-3.26a.36.36 0 1 1 0-.71h3.26a.36.36 0 0 1 0 .71Z" />
        <path fill="#fff"
            d="M11.73 7.7a.33.33 0 1 0 0-.66.33.33 0 0 0 0 .66ZM11.63 5.06a.33.33 0 1 0 0-.67.33.33 0 0 0 0 .67ZM12.64 10.55a.21.21 0 1 0 0-.42.21.21 0 0 0 0 .42ZM10.49 10.03a.21.21 0 1 0 0-.42.21.21 0 0 0 0 .42ZM11.3 3.83a.21.21 0 1 0 0-.43.21.21 0 0 0 0 .43ZM10.06 5.27a.21.21 0 1 0 0-.42.21.21 0 0 0 0 .42Z" />
        <path fill="#000"
            d="M13.24 18.82a.36.36 0 0 0-.42.29l-.23 1.24c-.03.19.1.38.29.41.02 0 .35.06.42-.28l.23-1.24a.36.36 0 0 0-.29-.42Z" />
        <path fill="#000"
            d="M20.69.6a.95.95 0 0 0-1.24-.54l-3.6 1.4a.95.95 0 0 0-.49.41l-2.33 4.05c.12-.75.1-1.66-.09-2.72-.08-.48-.27-.77-.56-.87-.39-.13-.72.16-.76.2-1.08.98-3.23.95-3.25.95h-.01c-.36 0-.71.08-1.04.23a.36.36 0 1 0 .3.65c.23-.11.48-.16.74-.17.14 0 2.47.04 3.75-1.14.09-.09.1.1.13.27.13.77.23 1.83.04 2.71h-.32a.36.36 0 1 0 0 .72h.36c.81.13 1.42.84 1.42 1.66v.06c-.13-.05-.27-.09-.4-.12a.36.36 0 0 0-.43.28c-.04.2.1.37.28.42 1.56.47 1.38 1.78 1.38 1.83H4.34a1.72 1.72 0 0 1 1.37-1.82.36.36 0 0 0-.15-.7 2.4 2.4 0 0 0-.4.12V8.4c0-.82.62-1.53 1.43-1.66h.26a.36.36 0 1 0 0-.72h-.29s-.02-.38.11-.67c.08-.18-.02-.4-.2-.47-.19-.07-.38.03-.46.2-.23.5-.17 1.07-.16 1.15-1.57.8-1.39 2.52-1.37 2.65-1.03.83-.85 2.05-.84 2.15a.93.93 0 0 0-.37.98l.4 1.7c.1.4.43.68.83.71l1.7 8.66c.1.53.56.91 1.1.91h4.4c.55 0 1.01-.39 1.11-.92l.26-1.38a.36.36 0 1 0-.7-.13l-.26 1.38c-.04.2-.2.34-.4.34H7.3a.41.41 0 0 1-.4-.34l-1.25-6.37h7.65l-.24 1.27c-.04.2.1.38.29.41.02 0 .35.04.41-.28l.66-3.55c.4-.04.72-.32.82-.7l.4-1.71a.92.92 0 0 0-.37-.98 2.42 2.42 0 0 0-.84-2.16c.02-.12.12-.96-.14-1.34l2.56-4.42 3.3-1.28a.95.95 0 0 0 .54-1.23Zm-7.26 15.27H5.5l-.28-1.43h8.47l-.27 1.43Zm1.3-4.28a.21.21 0 0 1 .2.26l-.39 1.7c-.02.1-.1.17-.2.17H4.57a.21.21 0 0 1-.2-.16l-.41-1.7a.21.21 0 0 1 .2-.27h10.57Zm5.29-10.54a.24.24 0 0 1-.14.12L16.47 2.5a.36.36 0 0 0-.18.15l-2.42 4.2c-.1-.13-.23-.24-.36-.34l2.47-4.28a.24.24 0 0 1 .12-.1l3.61-1.4a.24.24 0 0 1 .31.14c.02.06.02.12 0 .18Z" />
    </g>
    <defs>
        <clipPath id="a">
            <path fill="#fff" d="M0 0h24v24H0z" />
        </clipPath>
    </defs>
</svg>