<svg xmlns="http://www.w3.org/2000/svg" width="24" height="24" fill="none">
    <path fill="#000" fill-rule="evenodd"
        d="M3.28 1.06C2.06 1.06 1 2 1 3.36v17.43C1 22 2 23 3.2 23h17.6c1.2.01 2.2-.88 2.2-2.2V3.22C23 2 22 1 20.8 1.02L12.2 1c-4.72 0-8.92.06-8.92.06Zm14.37 7.02c.18.18.24.31.24.55 0 .3-.11.42-3.62 3.93-3.3 3.3-3.64 3.61-3.89 3.61-.15 0-.37-.05-.49-.11s-1.02-.92-2-1.9c-1.65-1.67-1.78-1.82-1.78-2.1 0-.34.3-.74.62-.82.36-.1.7.16 2.16 1.62l1.43 1.43 3.24-3.22c3.12-3.12 3.24-3.23 3.54-3.23.23 0 .37.06.55.24Z"
        clip-rule="evenodd" />
</svg>