<svg xmlns="http://www.w3.org/2000/svg" width="24" height="24" fill="none">
    <path fill="#000"
        d="M22.65 6.47a3.21 3.21 0 0 0-.52-1.64A6.7 6.7 0 0 0 18.9 2.2C17.1 1.4 14.77 1 12 1c-2.77 0-5.09.4-6.9 1.2a6.7 6.7 0 0 0-3.23 2.63 3.21 3.21 0 0 0 1.59 4.8c.22.08.45.14.68.17V23h15.72V9.8a3.23 3.23 0 0 0 2.8-3.32Zm-2.34 2.54c-.26.1-.52.15-.77.15h-.33v13.19H4.79V9.16h-.33a2.58 2.58 0 0 1-2.04-3.98l.01-.02c.62-1.05 2.8-3.5 9.57-3.5 6.78 0 8.95 2.45 9.57 3.5v.02A2.56 2.56 0 0 1 20.32 9Z" />
    <path fill="#E6A982" d="m3.5 3.5-2 3 1 2 2 1v13h15v-13L21 9l1.5-2-1-2.5-2-1.5L15 1.5H8.5l-5 2Z" />
    <path fill="#FDD6B5" d="M3.5 8h2.3v13.3H18V8h2l1-.5V6l-2-2-3.5-1-4.5-.5L8 3 4 4.5l-1 2L3.5 8Z" />
    <path fill="#000"
        d="M21.35 6.53a1.9 1.9 0 0 0-.32-1L21 5.5a5.41 5.41 0 0 0-2.62-2.1c-1.65-.72-3.8-1.08-6.38-1.08s-4.73.36-6.38 1.09A5.41 5.41 0 0 0 3 5.5l-.03.04c-.2.3-.3.63-.32.98V6.59c0 .8.5 1.53 1.26 1.8l.03.01c.17.07.35.11.52.11h.98v2.52h.66V7.86H4.46a.78.78 0 0 1-.28-.06l-.05-.02c-.5-.18-.83-.66-.83-1.19v-.04c.01-.24.09-.46.21-.65l.05-.08c.3-.5.93-1.21 2.32-1.82A15.42 15.42 0 0 1 12 2.96c2.5 0 4.55.35 6.12 1.04a4.78 4.78 0 0 1 2.32 1.82l.05.08c.12.2.2.41.2.65v.01a1.27 1.27 0 0 1-.83 1.22l-.04.02c-.1.04-.2.06-.28.06H17.9v13.18H6.1V11.9h-.66v9.8h13.11V8.5h.99c.17 0 .35-.04.52-.1l.03-.02a1.92 1.92 0 0 0 1.26-1.86Z" />
    <path fill="#000"
        d="M22.65 6.47a3.21 3.21 0 0 0-.52-1.64A6.7 6.7 0 0 0 18.9 2.2C17.1 1.4 14.77 1 12 1c-2.77 0-5.09.4-6.9 1.2a6.7 6.7 0 0 0-3.23 2.63 3.21 3.21 0 0 0 1.59 4.8c.22.08.45.14.68.17V23h15.72V9.8a3.23 3.23 0 0 0 2.8-3.32Zm-2.34 2.54c-.26.1-.52.15-.77.15h-.33v13.19H4.79V9.16h-.33a2.58 2.58 0 0 1-2.04-3.98l.01-.02c.62-1.05 2.8-3.5 9.57-3.5 6.78 0 8.95 2.45 9.57 3.5v.02A2.56 2.56 0 0 1 20.32 9Z" />
    <path stroke="#000" stroke-linecap="round" stroke-width=".4"
        d="m11.5 9 3 3.5M11 11l3 3.5M16.4 17.45v3.94M14.92 19.43v1.84M9 11l3 3.5" />
</svg>