<svg xmlns="http://www.w3.org/2000/svg" width="24" height="24" fill="none">
    <g clip-path="url(#a)">
        <path fill="#FBE5C6" d="M1.5 12 12 1.5 22.5 12 12 22.5 1.5 12Z" />
        <path fill="#C99B75"
            d="m11.87 3.47 2.39 2.36-2.41 2.43L9.46 5.9zM15 6.62l2.29 2.26-2.36 2.37L12.65 9zM12.05 9.86l2.17 2.16-2.18 2.2-2.18-2.16zM8.94 12.77l2.22 2.2-2.19 2.2-2.21-2.2zM12.1 15.92l2.3 2.27-2.18 2.2-2.3-2.27zM15.18 13l2.3 2.27-2.19 2.2L13 15.2zM18.18 10l2.3 2.27-2.19 2.2L16 12.2zM8.84 6.57l2.39 2.37-2.35 2.36L6.5 8.93zM5.93 9.41l2.39 2.37-2.46 2.48-2.4-2.36z" />
        <path fill="#C99B75" d="m5.93 9.41 2.39 2.37-2.46 2.48-2.4-2.36z" />
        <path fill="#000"
            d="M12 22.57a1.07 1.07 0 0 1-.76-.32l-9.5-9.49a1.08 1.08 0 0 1 0-1.52l9.5-9.5a1.1 1.1 0 0 1 1.52 0l9.5 9.5a1.08 1.08 0 0 1 0 1.52l-9.5 9.5a1.07 1.07 0 0 1-.76.31Zm0-20.62a.55.55 0 0 0-.4.16l-9.49 9.5a.56.56 0 0 0 0 .79l9.5 9.49a.57.57 0 0 0 .79 0l9.49-9.5a.56.56 0 0 0 0-.78l-9.5-9.5a.55.55 0 0 0-.39-.16Z" />
        <path fill="#FDFDFD"
            d="m15.5 6.5-.5-2 7.5 7.5-3 3h-1L17 14l1-2 .5-1-.5-1h-1l-2 1.5-1-.5v-.5l.5-1.5 1-2.5Z" />
        <path fill="#000"
            d="M12 14.55a.26.26 0 0 1-.18-.08l-2.3-2.29a.26.26 0 0 1 0-.36l2.3-2.3a.26.26 0 0 1 .36 0l2.3 2.3a.26.26 0 0 1 0 .36l-2.3 2.3a.25.25 0 0 1-.18.07ZM10.07 12 12 13.93 13.93 12 12 10.08 10.07 12ZM15.12 17.67a.25.25 0 0 1-.18-.08l-2.3-2.29a.25.25 0 0 1 0-.36l2.3-2.3a.25.25 0 0 1 .36 0l2.29 2.3a.26.26 0 0 1 0 .36L15.3 17.6a.25.25 0 0 1-.18.08Zm-1.93-2.55 1.93 1.92 1.92-1.92-1.92-1.93-1.93 1.93ZM8.88 11.43a.26.26 0 0 1-.18-.08L6.4 9.06a.26.26 0 0 1 0-.36l2.3-2.3a.26.26 0 0 1 .36 0l2.3 2.3a.26.26 0 0 1 0 .36l-2.3 2.3a.26.26 0 0 1-.18.07ZM6.96 8.88l1.92 1.93 1.93-1.93-1.93-1.93-1.92 1.93ZM13.84 10.4a.27.27 0 0 1-.19-.07L12.52 9.2a.26.26 0 0 1 0-.37l2.29-2.3a.26.26 0 0 1 .36 0l.32.33a.26.26 0 0 1-.36.37l-.14-.14L13.06 9l.96.96a.25.25 0 0 1 0 .36.26.26 0 0 1-.18.08ZM17.06 13.63a.24.24 0 0 1-.18-.07l-1.25-1.25a.26.26 0 0 1 0-.36l2.13-2.13a.25.25 0 0 1 .37 0 .26.26 0 0 1 0 .36l-1.95 1.95 1.07 1.06a.26.26 0 0 1-.19.44ZM11.87 8.44a.26.26 0 0 1-.18-.07l-2.3-2.3a.25.25 0 0 1 0-.36l2.3-2.3a.26.26 0 0 1 .36 0l2.3 2.29a.26.26 0 0 1 0 .36l-2.3 2.3a.27.27 0 0 1-.18.08ZM9.94 5.9l1.92 1.93 1.93-1.93-1.93-1.92-1.92 1.92ZM9.01 17.53a.25.25 0 0 1-.18-.07l-2.29-2.3a.25.25 0 0 1 0-.36l2.3-2.29a.26.26 0 0 1 .35 0l2.3 2.3a.26.26 0 0 1 0 .36l-2.3 2.29a.25.25 0 0 1-.18.07ZM7.1 15 9 16.9 10.94 15 9 13.06 7.1 15ZM12.13 20.65a.25.25 0 0 1-.18-.07l-2.3-2.3a.26.26 0 0 1 0-.36l2.3-2.29a.27.27 0 0 1 .36 0l2.3 2.3a.26.26 0 0 1 0 .36l-2.3 2.3a.25.25 0 0 1-.18.06Zm-1.92-2.55 1.92 1.93 1.93-1.93-1.93-1.92-1.92 1.92ZM5.9 14.4a.26.26 0 0 1-.2-.07l-2.3-2.28a.26.26 0 0 1 0-.36l2.3-2.3a.25.25 0 0 1 .36 0l2.3 2.3a.26.26 0 0 1 0 .36l-2.3 2.29a.26.26 0 0 1-.17.07Zm-1.93-2.54 1.92 1.92 1.93-1.92-1.93-1.92-1.92 1.92Z" />
        <path fill="#000"
            d="M18.93 15.33a2.36 2.36 0 0 1-1.89-.95c-.36-.54-.45-1.34.43-1.98.72-.52.92-1.14.88-1.55a.67.67 0 0 0-.39-.57c-.34-.14-.83 0-1.34.41l-.17.14c-.48.44-1.05.76-1.67.95a.97.97 0 0 1-.93-.36 1.45 1.45 0 0 1-.3-1.18c.18-.62.5-1.19.93-1.68 1.31-1.72.03-4.33 0-4.36a.26.26 0 0 1 .46-.23c.06.12 1.44 2.94-.07 4.9-.36.44-.64.94-.8 1.48a.92.92 0 0 0 .2.73.46.46 0 0 0 .42.2 3.9 3.9 0 0 0 1.44-.86l.16-.14c.92-.71 1.56-.6 1.86-.48a1.18 1.18 0 0 1 .7.98c.06.56-.2 1.38-1.1 2.04-.5.37-.6.82-.3 1.26.43.63 1.5 1 2.23.52a.26.26 0 0 1 .27.44c-.3.2-.65.3-1.02.3Z" />
    </g>
    <defs>
        <clipPath id="a">
            <path fill="#fff" d="M1 1h22v22H1z" />
        </clipPath>
    </defs>
</svg>